G04 #@! TF.GenerationSoftware,KiCad,Pcbnew,(6.0.6)*
G04 #@! TF.CreationDate,2023-10-25T22:22:06+02:00*
G04 #@! TF.ProjectId,SHS_DCDC,5348535f-4443-4444-932e-6b696361645f,rev?*
G04 #@! TF.SameCoordinates,Original*
G04 #@! TF.FileFunction,Legend,Bot*
G04 #@! TF.FilePolarity,Positive*
%FSLAX46Y46*%
G04 Gerber Fmt 4.6, Leading zero omitted, Abs format (unit mm)*
G04 Created by KiCad (PCBNEW (6.0.6)) date 2023-10-25 22:22:06*
%MOMM*%
%LPD*%
G01*
G04 APERTURE LIST*
%ADD10C,0.200000*%
%ADD11C,0.250000*%
%ADD12C,0.150000*%
%ADD13C,0.500000*%
%ADD14C,0.120000*%
%ADD15C,0.127000*%
%ADD16C,0.400000*%
%ADD17C,0.100000*%
%ADD18C,2.700000*%
%ADD19C,0.610000*%
%ADD20R,1.524000X1.524000*%
%ADD21C,1.524000*%
%ADD22C,3.500000*%
%ADD23C,2.200000*%
%ADD24O,2.000000X4.000000*%
%ADD25O,4.000000X2.000000*%
%ADD26C,2.000000*%
%ADD27C,2.600000*%
%ADD28R,1.000000X1.000000*%
%ADD29O,1.000000X1.000000*%
%ADD30C,3.200000*%
%ADD31R,1.500000X1.500000*%
%ADD32C,1.500000*%
%ADD33C,2.020000*%
%ADD34C,3.600000*%
G04 APERTURE END LIST*
D10*
X12866666Y-71252380D02*
X12866666Y-71966666D01*
X12914285Y-72109523D01*
X13009523Y-72204761D01*
X13152380Y-72252380D01*
X13247619Y-72252380D01*
X12533333Y-71252380D02*
X11961904Y-71252380D01*
X12247619Y-72252380D02*
X12247619Y-71252380D01*
X11676190Y-71966666D02*
X11200000Y-71966666D01*
X11771428Y-72252380D02*
X11438095Y-71252380D01*
X11104761Y-72252380D01*
X10247619Y-71300000D02*
X10342857Y-71252380D01*
X10485714Y-71252380D01*
X10628571Y-71300000D01*
X10723809Y-71395238D01*
X10771428Y-71490476D01*
X10819047Y-71680952D01*
X10819047Y-71823809D01*
X10771428Y-72014285D01*
X10723809Y-72109523D01*
X10628571Y-72204761D01*
X10485714Y-72252380D01*
X10390476Y-72252380D01*
X10247619Y-72204761D01*
X10200000Y-72157142D01*
X10200000Y-71823809D01*
X10390476Y-71823809D01*
D11*
X2269642Y-825476D02*
X1664880Y-825476D01*
X1664880Y-2095476D01*
X2692976Y-825476D02*
X2692976Y-2095476D01*
X3962976Y-2035000D02*
X3842023Y-2095476D01*
X3660595Y-2095476D01*
X3479166Y-2035000D01*
X3358214Y-1914047D01*
X3297738Y-1793095D01*
X3237261Y-1551190D01*
X3237261Y-1369761D01*
X3297738Y-1127857D01*
X3358214Y-1006904D01*
X3479166Y-885952D01*
X3660595Y-825476D01*
X3781547Y-825476D01*
X3962976Y-885952D01*
X4023452Y-946428D01*
X4023452Y-1369761D01*
X3781547Y-1369761D01*
X4567738Y-825476D02*
X4567738Y-2095476D01*
X4567738Y-1490714D02*
X5293452Y-1490714D01*
X5293452Y-825476D02*
X5293452Y-2095476D01*
X5716785Y-2095476D02*
X6442500Y-2095476D01*
X6079642Y-825476D02*
X6079642Y-2095476D01*
X6744880Y-2095476D02*
X7531071Y-2095476D01*
X7107738Y-1611666D01*
X7289166Y-1611666D01*
X7410119Y-1551190D01*
X7470595Y-1490714D01*
X7531071Y-1369761D01*
X7531071Y-1067380D01*
X7470595Y-946428D01*
X7410119Y-885952D01*
X7289166Y-825476D01*
X6926309Y-825476D01*
X6805357Y-885952D01*
X6744880Y-946428D01*
D10*
X16560476Y-81932142D02*
X16608095Y-81979761D01*
X16750952Y-82027380D01*
X16846190Y-82027380D01*
X16989047Y-81979761D01*
X17084285Y-81884523D01*
X17131904Y-81789285D01*
X17179523Y-81598809D01*
X17179523Y-81455952D01*
X17131904Y-81265476D01*
X17084285Y-81170238D01*
X16989047Y-81075000D01*
X16846190Y-81027380D01*
X16750952Y-81027380D01*
X16608095Y-81075000D01*
X16560476Y-81122619D01*
X15941428Y-81027380D02*
X15750952Y-81027380D01*
X15655714Y-81075000D01*
X15560476Y-81170238D01*
X15512857Y-81360714D01*
X15512857Y-81694047D01*
X15560476Y-81884523D01*
X15655714Y-81979761D01*
X15750952Y-82027380D01*
X15941428Y-82027380D01*
X16036666Y-81979761D01*
X16131904Y-81884523D01*
X16179523Y-81694047D01*
X16179523Y-81360714D01*
X16131904Y-81170238D01*
X16036666Y-81075000D01*
X15941428Y-81027380D01*
X15084285Y-82027380D02*
X15084285Y-81027380D01*
X14750952Y-81741666D01*
X14417619Y-81027380D01*
X14417619Y-82027380D01*
X13941428Y-82027380D02*
X13941428Y-81027380D01*
X13608095Y-81741666D01*
X13274761Y-81027380D01*
X13274761Y-82027380D01*
X12084285Y-80979761D02*
X12941428Y-82265476D01*
X11750952Y-82027380D02*
X11750952Y-81027380D01*
X11370000Y-81027380D01*
X11274761Y-81075000D01*
X11227142Y-81122619D01*
X11179523Y-81217857D01*
X11179523Y-81360714D01*
X11227142Y-81455952D01*
X11274761Y-81503571D01*
X11370000Y-81551190D01*
X11750952Y-81551190D01*
X10179523Y-82027380D02*
X10512857Y-81551190D01*
X10750952Y-82027380D02*
X10750952Y-81027380D01*
X10370000Y-81027380D01*
X10274761Y-81075000D01*
X10227142Y-81122619D01*
X10179523Y-81217857D01*
X10179523Y-81360714D01*
X10227142Y-81455952D01*
X10274761Y-81503571D01*
X10370000Y-81551190D01*
X10750952Y-81551190D01*
X9560476Y-81027380D02*
X9370000Y-81027380D01*
X9274761Y-81075000D01*
X9179523Y-81170238D01*
X9131904Y-81360714D01*
X9131904Y-81694047D01*
X9179523Y-81884523D01*
X9274761Y-81979761D01*
X9370000Y-82027380D01*
X9560476Y-82027380D01*
X9655714Y-81979761D01*
X9750952Y-81884523D01*
X9798571Y-81694047D01*
X9798571Y-81360714D01*
X9750952Y-81170238D01*
X9655714Y-81075000D01*
X9560476Y-81027380D01*
X8179523Y-81075000D02*
X8274761Y-81027380D01*
X8417619Y-81027380D01*
X8560476Y-81075000D01*
X8655714Y-81170238D01*
X8703333Y-81265476D01*
X8750952Y-81455952D01*
X8750952Y-81598809D01*
X8703333Y-81789285D01*
X8655714Y-81884523D01*
X8560476Y-81979761D01*
X8417619Y-82027380D01*
X8322380Y-82027380D01*
X8179523Y-81979761D01*
X8131904Y-81932142D01*
X8131904Y-81598809D01*
X8322380Y-81598809D01*
X6465238Y-82027380D02*
X6941428Y-82027380D01*
X6941428Y-81027380D01*
X6131904Y-82027380D02*
X6131904Y-81027380D01*
X5655714Y-82027380D02*
X5655714Y-81027380D01*
X5084285Y-82027380D01*
X5084285Y-81027380D01*
X4608095Y-81503571D02*
X4274761Y-81503571D01*
X4131904Y-82027380D02*
X4608095Y-82027380D01*
X4608095Y-81027380D01*
X4131904Y-81027380D01*
X3750952Y-81979761D02*
X3608095Y-82027380D01*
X3370000Y-82027380D01*
X3274761Y-81979761D01*
X3227142Y-81932142D01*
X3179523Y-81836904D01*
X3179523Y-81741666D01*
X3227142Y-81646428D01*
X3274761Y-81598809D01*
X3370000Y-81551190D01*
X3560476Y-81503571D01*
X3655714Y-81455952D01*
X3703333Y-81408333D01*
X3750952Y-81313095D01*
X3750952Y-81217857D01*
X3703333Y-81122619D01*
X3655714Y-81075000D01*
X3560476Y-81027380D01*
X3322380Y-81027380D01*
X3179523Y-81075000D01*
X16846190Y-82637380D02*
X16846190Y-83351666D01*
X16893809Y-83494523D01*
X16989047Y-83589761D01*
X17131904Y-83637380D01*
X17227142Y-83637380D01*
X15941428Y-82970714D02*
X15941428Y-83637380D01*
X16179523Y-82589761D02*
X16417619Y-83304047D01*
X15798571Y-83304047D01*
X16608095Y-85247380D02*
X17179523Y-85247380D01*
X16893809Y-85247380D02*
X16893809Y-84247380D01*
X16989047Y-84390238D01*
X17084285Y-84485476D01*
X17179523Y-84533095D01*
X16179523Y-85152142D02*
X16131904Y-85199761D01*
X16179523Y-85247380D01*
X16227142Y-85199761D01*
X16179523Y-85152142D01*
X16179523Y-85247380D01*
X15179523Y-84295000D02*
X15274761Y-84247380D01*
X15417619Y-84247380D01*
X15560476Y-84295000D01*
X15655714Y-84390238D01*
X15703333Y-84485476D01*
X15750952Y-84675952D01*
X15750952Y-84818809D01*
X15703333Y-85009285D01*
X15655714Y-85104523D01*
X15560476Y-85199761D01*
X15417619Y-85247380D01*
X15322380Y-85247380D01*
X15179523Y-85199761D01*
X15131904Y-85152142D01*
X15131904Y-84818809D01*
X15322380Y-84818809D01*
X14703333Y-85247380D02*
X14703333Y-84247380D01*
X14131904Y-85247380D01*
X14131904Y-84247380D01*
X13655714Y-85247380D02*
X13655714Y-84247380D01*
X13417619Y-84247380D01*
X13274761Y-84295000D01*
X13179523Y-84390238D01*
X13131904Y-84485476D01*
X13084285Y-84675952D01*
X13084285Y-84818809D01*
X13131904Y-85009285D01*
X13179523Y-85104523D01*
X13274761Y-85199761D01*
X13417619Y-85247380D01*
X13655714Y-85247380D01*
X17179523Y-85952619D02*
X17131904Y-85905000D01*
X17036666Y-85857380D01*
X16798571Y-85857380D01*
X16703333Y-85905000D01*
X16655714Y-85952619D01*
X16608095Y-86047857D01*
X16608095Y-86143095D01*
X16655714Y-86285952D01*
X17227142Y-86857380D01*
X16608095Y-86857380D01*
X16179523Y-86762142D02*
X16131904Y-86809761D01*
X16179523Y-86857380D01*
X16227142Y-86809761D01*
X16179523Y-86762142D01*
X16179523Y-86857380D01*
X15703333Y-86857380D02*
X15703333Y-85857380D01*
X15370000Y-86571666D01*
X15036666Y-85857380D01*
X15036666Y-86857380D01*
X13989047Y-86762142D02*
X14036666Y-86809761D01*
X14179523Y-86857380D01*
X14274761Y-86857380D01*
X14417619Y-86809761D01*
X14512857Y-86714523D01*
X14560476Y-86619285D01*
X14608095Y-86428809D01*
X14608095Y-86285952D01*
X14560476Y-86095476D01*
X14512857Y-86000238D01*
X14417619Y-85905000D01*
X14274761Y-85857380D01*
X14179523Y-85857380D01*
X14036666Y-85905000D01*
X13989047Y-85952619D01*
X13560476Y-85857380D02*
X13560476Y-86666904D01*
X13512857Y-86762142D01*
X13465238Y-86809761D01*
X13370000Y-86857380D01*
X13179523Y-86857380D01*
X13084285Y-86809761D01*
X13036666Y-86762142D01*
X12989047Y-86666904D01*
X12989047Y-85857380D01*
X12750952Y-86952619D02*
X11989047Y-86952619D01*
X11893809Y-85857380D02*
X11560476Y-86857380D01*
X11227142Y-85857380D01*
X10893809Y-86857380D02*
X10893809Y-85857380D01*
X10655714Y-85857380D01*
X10512857Y-85905000D01*
X10417619Y-86000238D01*
X10370000Y-86095476D01*
X10322380Y-86285952D01*
X10322380Y-86428809D01*
X10370000Y-86619285D01*
X10417619Y-86714523D01*
X10512857Y-86809761D01*
X10655714Y-86857380D01*
X10893809Y-86857380D01*
X9893809Y-86857380D02*
X9893809Y-85857380D01*
X9655714Y-85857380D01*
X9512857Y-85905000D01*
X9417619Y-86000238D01*
X9370000Y-86095476D01*
X9322380Y-86285952D01*
X9322380Y-86428809D01*
X9370000Y-86619285D01*
X9417619Y-86714523D01*
X9512857Y-86809761D01*
X9655714Y-86857380D01*
X9893809Y-86857380D01*
X17227142Y-87467380D02*
X16608095Y-87467380D01*
X16941428Y-87848333D01*
X16798571Y-87848333D01*
X16703333Y-87895952D01*
X16655714Y-87943571D01*
X16608095Y-88038809D01*
X16608095Y-88276904D01*
X16655714Y-88372142D01*
X16703333Y-88419761D01*
X16798571Y-88467380D01*
X17084285Y-88467380D01*
X17179523Y-88419761D01*
X17227142Y-88372142D01*
X16179523Y-88372142D02*
X16131904Y-88419761D01*
X16179523Y-88467380D01*
X16227142Y-88419761D01*
X16179523Y-88372142D01*
X16179523Y-88467380D01*
X15703333Y-88467380D02*
X15703333Y-87467380D01*
X15370000Y-88181666D01*
X15036666Y-87467380D01*
X15036666Y-88467380D01*
X13989047Y-88372142D02*
X14036666Y-88419761D01*
X14179523Y-88467380D01*
X14274761Y-88467380D01*
X14417619Y-88419761D01*
X14512857Y-88324523D01*
X14560476Y-88229285D01*
X14608095Y-88038809D01*
X14608095Y-87895952D01*
X14560476Y-87705476D01*
X14512857Y-87610238D01*
X14417619Y-87515000D01*
X14274761Y-87467380D01*
X14179523Y-87467380D01*
X14036666Y-87515000D01*
X13989047Y-87562619D01*
X13560476Y-87467380D02*
X13560476Y-88276904D01*
X13512857Y-88372142D01*
X13465238Y-88419761D01*
X13370000Y-88467380D01*
X13179523Y-88467380D01*
X13084285Y-88419761D01*
X13036666Y-88372142D01*
X12989047Y-88276904D01*
X12989047Y-87467380D01*
X12750952Y-88562619D02*
X11989047Y-88562619D01*
X11893809Y-87467380D02*
X11322380Y-87467380D01*
X11608095Y-88467380D02*
X11608095Y-87467380D01*
X11084285Y-87467380D02*
X10417619Y-88467380D01*
X10417619Y-87467380D02*
X11084285Y-88467380D01*
X16703333Y-89410714D02*
X16703333Y-90077380D01*
X16941428Y-89029761D02*
X17179523Y-89744047D01*
X16560476Y-89744047D01*
X16179523Y-89982142D02*
X16131904Y-90029761D01*
X16179523Y-90077380D01*
X16227142Y-90029761D01*
X16179523Y-89982142D01*
X16179523Y-90077380D01*
X15703333Y-90077380D02*
X15703333Y-89077380D01*
X15370000Y-89791666D01*
X15036666Y-89077380D01*
X15036666Y-90077380D01*
X13989047Y-89982142D02*
X14036666Y-90029761D01*
X14179523Y-90077380D01*
X14274761Y-90077380D01*
X14417619Y-90029761D01*
X14512857Y-89934523D01*
X14560476Y-89839285D01*
X14608095Y-89648809D01*
X14608095Y-89505952D01*
X14560476Y-89315476D01*
X14512857Y-89220238D01*
X14417619Y-89125000D01*
X14274761Y-89077380D01*
X14179523Y-89077380D01*
X14036666Y-89125000D01*
X13989047Y-89172619D01*
X13560476Y-89077380D02*
X13560476Y-89886904D01*
X13512857Y-89982142D01*
X13465238Y-90029761D01*
X13370000Y-90077380D01*
X13179523Y-90077380D01*
X13084285Y-90029761D01*
X13036666Y-89982142D01*
X12989047Y-89886904D01*
X12989047Y-89077380D01*
X12750952Y-90172619D02*
X11989047Y-90172619D01*
X11179523Y-90077380D02*
X11512857Y-89601190D01*
X11750952Y-90077380D02*
X11750952Y-89077380D01*
X11370000Y-89077380D01*
X11274761Y-89125000D01*
X11227142Y-89172619D01*
X11179523Y-89267857D01*
X11179523Y-89410714D01*
X11227142Y-89505952D01*
X11274761Y-89553571D01*
X11370000Y-89601190D01*
X11750952Y-89601190D01*
X10846190Y-89077380D02*
X10179523Y-90077380D01*
X10179523Y-89077380D02*
X10846190Y-90077380D01*
D11*
X10574523Y-30069642D02*
X10574523Y-29464880D01*
X9304523Y-29464880D01*
X10574523Y-30492976D02*
X9304523Y-30492976D01*
X9365000Y-31762976D02*
X9304523Y-31642023D01*
X9304523Y-31460595D01*
X9365000Y-31279166D01*
X9485952Y-31158214D01*
X9606904Y-31097738D01*
X9848809Y-31037261D01*
X10030238Y-31037261D01*
X10272142Y-31097738D01*
X10393095Y-31158214D01*
X10514047Y-31279166D01*
X10574523Y-31460595D01*
X10574523Y-31581547D01*
X10514047Y-31762976D01*
X10453571Y-31823452D01*
X10030238Y-31823452D01*
X10030238Y-31581547D01*
X10574523Y-32367738D02*
X9304523Y-32367738D01*
X9909285Y-32367738D02*
X9909285Y-33093452D01*
X10574523Y-33093452D02*
X9304523Y-33093452D01*
X9304523Y-33516785D02*
X9304523Y-34242500D01*
X10574523Y-33879642D02*
X9304523Y-33879642D01*
X9425476Y-34605357D02*
X9365000Y-34665833D01*
X9304523Y-34786785D01*
X9304523Y-35089166D01*
X9365000Y-35210119D01*
X9425476Y-35270595D01*
X9546428Y-35331071D01*
X9667380Y-35331071D01*
X9848809Y-35270595D01*
X10574523Y-34544880D01*
X10574523Y-35331071D01*
X16569880Y-62407473D02*
X17295595Y-62407473D01*
X16932738Y-62407473D02*
X16932738Y-61137473D01*
X17053690Y-61318902D01*
X17174642Y-61439854D01*
X17295595Y-61500330D01*
X16025595Y-62286521D02*
X15965119Y-62346997D01*
X16025595Y-62407473D01*
X16086071Y-62346997D01*
X16025595Y-62286521D01*
X16025595Y-62407473D01*
X17295595Y-63303126D02*
X17235119Y-63242650D01*
X17114166Y-63182173D01*
X16811785Y-63182173D01*
X16690833Y-63242650D01*
X16630357Y-63303126D01*
X16569880Y-63424078D01*
X16569880Y-63545030D01*
X16630357Y-63726459D01*
X17356071Y-64452173D01*
X16569880Y-64452173D01*
X16025595Y-64331221D02*
X15965119Y-64391697D01*
X16025595Y-64452173D01*
X16086071Y-64391697D01*
X16025595Y-64331221D01*
X16025595Y-64452173D01*
X17356071Y-65226873D02*
X16569880Y-65226873D01*
X16993214Y-65710683D01*
X16811785Y-65710683D01*
X16690833Y-65771159D01*
X16630357Y-65831635D01*
X16569880Y-65952588D01*
X16569880Y-66254969D01*
X16630357Y-66375921D01*
X16690833Y-66436397D01*
X16811785Y-66496873D01*
X17174642Y-66496873D01*
X17295595Y-66436397D01*
X17356071Y-66375921D01*
X16025595Y-66375921D02*
X15965119Y-66436397D01*
X16025595Y-66496873D01*
X16086071Y-66436397D01*
X16025595Y-66375921D01*
X16025595Y-66496873D01*
X16690833Y-67694907D02*
X16690833Y-68541573D01*
X16993214Y-67211097D02*
X17295595Y-68118240D01*
X16509404Y-68118240D01*
X16025595Y-68420621D02*
X15965119Y-68481097D01*
X16025595Y-68541573D01*
X16086071Y-68481097D01*
X16025595Y-68420621D01*
X16025595Y-68541573D01*
D10*
X96852380Y-14204761D02*
X97661904Y-14204761D01*
X97757142Y-14252380D01*
X97804761Y-14300000D01*
X97852380Y-14395238D01*
X97852380Y-14585714D01*
X97804761Y-14680952D01*
X97757142Y-14728571D01*
X97661904Y-14776190D01*
X96852380Y-14776190D01*
X97804761Y-15204761D02*
X97852380Y-15347619D01*
X97852380Y-15585714D01*
X97804761Y-15680952D01*
X97757142Y-15728571D01*
X97661904Y-15776190D01*
X97566666Y-15776190D01*
X97471428Y-15728571D01*
X97423809Y-15680952D01*
X97376190Y-15585714D01*
X97328571Y-15395238D01*
X97280952Y-15300000D01*
X97233333Y-15252380D01*
X97138095Y-15204761D01*
X97042857Y-15204761D01*
X96947619Y-15252380D01*
X96900000Y-15300000D01*
X96852380Y-15395238D01*
X96852380Y-15633333D01*
X96900000Y-15776190D01*
X97328571Y-16538095D02*
X97376190Y-16680952D01*
X97423809Y-16728571D01*
X97519047Y-16776190D01*
X97661904Y-16776190D01*
X97757142Y-16728571D01*
X97804761Y-16680952D01*
X97852380Y-16585714D01*
X97852380Y-16204761D01*
X96852380Y-16204761D01*
X96852380Y-16538095D01*
X96900000Y-16633333D01*
X96947619Y-16680952D01*
X97042857Y-16728571D01*
X97138095Y-16728571D01*
X97233333Y-16680952D01*
X97280952Y-16633333D01*
X97328571Y-16538095D01*
X97328571Y-16204761D01*
X97947619Y-16966666D02*
X97947619Y-17728571D01*
X97852380Y-17966666D02*
X96852380Y-17966666D01*
X96852380Y-18204761D01*
X96900000Y-18347619D01*
X96995238Y-18442857D01*
X97090476Y-18490476D01*
X97280952Y-18538095D01*
X97423809Y-18538095D01*
X97614285Y-18490476D01*
X97709523Y-18442857D01*
X97804761Y-18347619D01*
X97852380Y-18204761D01*
X97852380Y-17966666D01*
X97328571Y-19300000D02*
X97328571Y-18966666D01*
X97852380Y-18966666D02*
X96852380Y-18966666D01*
X96852380Y-19442857D01*
X96852380Y-19823809D02*
X97661904Y-19823809D01*
X97757142Y-19871428D01*
X97804761Y-19919047D01*
X97852380Y-20014285D01*
X97852380Y-20204761D01*
X97804761Y-20300000D01*
X97757142Y-20347619D01*
X97661904Y-20395238D01*
X96852380Y-20395238D01*
D11*
X10274523Y-63490595D02*
X9669761Y-63067261D01*
X10274523Y-62764880D02*
X9004523Y-62764880D01*
X9004523Y-63248690D01*
X9065000Y-63369642D01*
X9125476Y-63430119D01*
X9246428Y-63490595D01*
X9427857Y-63490595D01*
X9548809Y-63430119D01*
X9609285Y-63369642D01*
X9669761Y-63248690D01*
X9669761Y-62764880D01*
X10214047Y-63974404D02*
X10274523Y-64155833D01*
X10274523Y-64458214D01*
X10214047Y-64579166D01*
X10153571Y-64639642D01*
X10032619Y-64700119D01*
X9911666Y-64700119D01*
X9790714Y-64639642D01*
X9730238Y-64579166D01*
X9669761Y-64458214D01*
X9609285Y-64216309D01*
X9548809Y-64095357D01*
X9488333Y-64034880D01*
X9367380Y-63974404D01*
X9246428Y-63974404D01*
X9125476Y-64034880D01*
X9065000Y-64095357D01*
X9004523Y-64216309D01*
X9004523Y-64518690D01*
X9065000Y-64700119D01*
X9004523Y-65062976D02*
X9004523Y-65788690D01*
X10274523Y-65425833D02*
X9004523Y-65425833D01*
X10574523Y-39669642D02*
X10574523Y-39064880D01*
X9304523Y-39064880D01*
X10574523Y-40092976D02*
X9304523Y-40092976D01*
X9365000Y-41362976D02*
X9304523Y-41242023D01*
X9304523Y-41060595D01*
X9365000Y-40879166D01*
X9485952Y-40758214D01*
X9606904Y-40697738D01*
X9848809Y-40637261D01*
X10030238Y-40637261D01*
X10272142Y-40697738D01*
X10393095Y-40758214D01*
X10514047Y-40879166D01*
X10574523Y-41060595D01*
X10574523Y-41181547D01*
X10514047Y-41362976D01*
X10453571Y-41423452D01*
X10030238Y-41423452D01*
X10030238Y-41181547D01*
X10574523Y-41967738D02*
X9304523Y-41967738D01*
X9909285Y-41967738D02*
X9909285Y-42693452D01*
X10574523Y-42693452D02*
X9304523Y-42693452D01*
X9304523Y-43116785D02*
X9304523Y-43842500D01*
X10574523Y-43479642D02*
X9304523Y-43479642D01*
X10574523Y-44931071D02*
X10574523Y-44205357D01*
X10574523Y-44568214D02*
X9304523Y-44568214D01*
X9485952Y-44447261D01*
X9606904Y-44326309D01*
X9667380Y-44205357D01*
X10574523Y-20469642D02*
X10574523Y-19864880D01*
X9304523Y-19864880D01*
X10574523Y-20892976D02*
X9304523Y-20892976D01*
X9365000Y-22162976D02*
X9304523Y-22042023D01*
X9304523Y-21860595D01*
X9365000Y-21679166D01*
X9485952Y-21558214D01*
X9606904Y-21497738D01*
X9848809Y-21437261D01*
X10030238Y-21437261D01*
X10272142Y-21497738D01*
X10393095Y-21558214D01*
X10514047Y-21679166D01*
X10574523Y-21860595D01*
X10574523Y-21981547D01*
X10514047Y-22162976D01*
X10453571Y-22223452D01*
X10030238Y-22223452D01*
X10030238Y-21981547D01*
X10574523Y-22767738D02*
X9304523Y-22767738D01*
X9909285Y-22767738D02*
X9909285Y-23493452D01*
X10574523Y-23493452D02*
X9304523Y-23493452D01*
X9304523Y-23916785D02*
X9304523Y-24642500D01*
X10574523Y-24279642D02*
X9304523Y-24279642D01*
X9304523Y-24944880D02*
X9304523Y-25731071D01*
X9788333Y-25307738D01*
X9788333Y-25489166D01*
X9848809Y-25610119D01*
X9909285Y-25670595D01*
X10030238Y-25731071D01*
X10332619Y-25731071D01*
X10453571Y-25670595D01*
X10514047Y-25610119D01*
X10574523Y-25489166D01*
X10574523Y-25126309D01*
X10514047Y-25005357D01*
X10453571Y-24944880D01*
D12*
X83383333Y-13802380D02*
X83383333Y-14516666D01*
X83430952Y-14659523D01*
X83526190Y-14754761D01*
X83669047Y-14802380D01*
X83764285Y-14802380D01*
X82954761Y-13897619D02*
X82907142Y-13850000D01*
X82811904Y-13802380D01*
X82573809Y-13802380D01*
X82478571Y-13850000D01*
X82430952Y-13897619D01*
X82383333Y-13992857D01*
X82383333Y-14088095D01*
X82430952Y-14230952D01*
X83002380Y-14802380D01*
X82383333Y-14802380D01*
X10658868Y-45680700D02*
X10658868Y-46395638D01*
X10706531Y-46538626D01*
X10801856Y-46633951D01*
X10944843Y-46681613D01*
X11040168Y-46681613D01*
X9657955Y-46681613D02*
X10229905Y-46681613D01*
X9943930Y-46681613D02*
X9943930Y-45680700D01*
X10039255Y-45823688D01*
X10134580Y-45919013D01*
X10229905Y-45966676D01*
X7595238Y-32333333D02*
X7547619Y-32190476D01*
X7547619Y-31952380D01*
X7595238Y-31857142D01*
X7642857Y-31809523D01*
X7738095Y-31761904D01*
X7833333Y-31761904D01*
X7928571Y-31809523D01*
X7976190Y-31857142D01*
X8023809Y-31952380D01*
X8071428Y-32142857D01*
X8119047Y-32238095D01*
X8166666Y-32285714D01*
X8261904Y-32333333D01*
X8357142Y-32333333D01*
X8452380Y-32285714D01*
X8500000Y-32238095D01*
X8547619Y-32142857D01*
X8547619Y-31904761D01*
X8500000Y-31761904D01*
X8547619Y-31428571D02*
X7547619Y-31190476D01*
X8261904Y-31000000D01*
X7547619Y-30809523D01*
X8547619Y-30571428D01*
X8547619Y-30285714D02*
X8547619Y-29666666D01*
X8166666Y-30000000D01*
X8166666Y-29857142D01*
X8119047Y-29761904D01*
X8071428Y-29714285D01*
X7976190Y-29666666D01*
X7738095Y-29666666D01*
X7642857Y-29714285D01*
X7595238Y-29761904D01*
X7547619Y-29857142D01*
X7547619Y-30142857D01*
X7595238Y-30238095D01*
X7642857Y-30285714D01*
X6687380Y-74601666D02*
X7401666Y-74601666D01*
X7544523Y-74554047D01*
X7639761Y-74458809D01*
X7687380Y-74315952D01*
X7687380Y-74220714D01*
X6687380Y-74982619D02*
X6687380Y-75601666D01*
X7068333Y-75268333D01*
X7068333Y-75411190D01*
X7115952Y-75506428D01*
X7163571Y-75554047D01*
X7258809Y-75601666D01*
X7496904Y-75601666D01*
X7592142Y-75554047D01*
X7639761Y-75506428D01*
X7687380Y-75411190D01*
X7687380Y-75125476D01*
X7639761Y-75030238D01*
X7592142Y-74982619D01*
X7595238Y-21333333D02*
X7547619Y-21190476D01*
X7547619Y-20952380D01*
X7595238Y-20857142D01*
X7642857Y-20809523D01*
X7738095Y-20761904D01*
X7833333Y-20761904D01*
X7928571Y-20809523D01*
X7976190Y-20857142D01*
X8023809Y-20952380D01*
X8071428Y-21142857D01*
X8119047Y-21238095D01*
X8166666Y-21285714D01*
X8261904Y-21333333D01*
X8357142Y-21333333D01*
X8452380Y-21285714D01*
X8500000Y-21238095D01*
X8547619Y-21142857D01*
X8547619Y-20904761D01*
X8500000Y-20761904D01*
X8547619Y-20428571D02*
X7547619Y-20190476D01*
X8261904Y-20000000D01*
X7547619Y-19809523D01*
X8547619Y-19571428D01*
X8214285Y-18761904D02*
X7547619Y-18761904D01*
X8595238Y-19000000D02*
X7880952Y-19238095D01*
X7880952Y-18619047D01*
X18040238Y-18452380D02*
X18516428Y-18452380D01*
X18516428Y-17452380D01*
X17706904Y-18452380D02*
X17706904Y-17785714D01*
X17706904Y-17452380D02*
X17754523Y-17500000D01*
X17706904Y-17547619D01*
X17659285Y-17500000D01*
X17706904Y-17452380D01*
X17706904Y-17547619D01*
X16802142Y-17785714D02*
X16802142Y-18595238D01*
X16849761Y-18690476D01*
X16897380Y-18738095D01*
X16992619Y-18785714D01*
X17135476Y-18785714D01*
X17230714Y-18738095D01*
X16802142Y-18404761D02*
X16897380Y-18452380D01*
X17087857Y-18452380D01*
X17183095Y-18404761D01*
X17230714Y-18357142D01*
X17278333Y-18261904D01*
X17278333Y-17976190D01*
X17230714Y-17880952D01*
X17183095Y-17833333D01*
X17087857Y-17785714D01*
X16897380Y-17785714D01*
X16802142Y-17833333D01*
X16325952Y-18452380D02*
X16325952Y-17452380D01*
X15897380Y-18452380D02*
X15897380Y-17928571D01*
X15945000Y-17833333D01*
X16040238Y-17785714D01*
X16183095Y-17785714D01*
X16278333Y-17833333D01*
X16325952Y-17880952D01*
X15564047Y-17785714D02*
X15183095Y-17785714D01*
X15421190Y-17452380D02*
X15421190Y-18309523D01*
X15373571Y-18404761D01*
X15278333Y-18452380D01*
X15183095Y-18452380D01*
X14325952Y-18452380D02*
X14897380Y-18452380D01*
X14611666Y-18452380D02*
X14611666Y-17452380D01*
X14706904Y-17595238D01*
X14802142Y-17690476D01*
X14897380Y-17738095D01*
X96058333Y-13852380D02*
X96058333Y-14566666D01*
X96105952Y-14709523D01*
X96201190Y-14804761D01*
X96344047Y-14852380D01*
X96439285Y-14852380D01*
X95105952Y-13852380D02*
X95582142Y-13852380D01*
X95629761Y-14328571D01*
X95582142Y-14280952D01*
X95486904Y-14233333D01*
X95248809Y-14233333D01*
X95153571Y-14280952D01*
X95105952Y-14328571D01*
X95058333Y-14423809D01*
X95058333Y-14661904D01*
X95105952Y-14757142D01*
X95153571Y-14804761D01*
X95248809Y-14852380D01*
X95486904Y-14852380D01*
X95582142Y-14804761D01*
X95629761Y-14757142D01*
X42040238Y-18452380D02*
X42516428Y-18452380D01*
X42516428Y-17452380D01*
X41706904Y-18452380D02*
X41706904Y-17785714D01*
X41706904Y-17452380D02*
X41754523Y-17500000D01*
X41706904Y-17547619D01*
X41659285Y-17500000D01*
X41706904Y-17452380D01*
X41706904Y-17547619D01*
X40802142Y-17785714D02*
X40802142Y-18595238D01*
X40849761Y-18690476D01*
X40897380Y-18738095D01*
X40992619Y-18785714D01*
X41135476Y-18785714D01*
X41230714Y-18738095D01*
X40802142Y-18404761D02*
X40897380Y-18452380D01*
X41087857Y-18452380D01*
X41183095Y-18404761D01*
X41230714Y-18357142D01*
X41278333Y-18261904D01*
X41278333Y-17976190D01*
X41230714Y-17880952D01*
X41183095Y-17833333D01*
X41087857Y-17785714D01*
X40897380Y-17785714D01*
X40802142Y-17833333D01*
X40325952Y-18452380D02*
X40325952Y-17452380D01*
X39897380Y-18452380D02*
X39897380Y-17928571D01*
X39945000Y-17833333D01*
X40040238Y-17785714D01*
X40183095Y-17785714D01*
X40278333Y-17833333D01*
X40325952Y-17880952D01*
X39564047Y-17785714D02*
X39183095Y-17785714D01*
X39421190Y-17452380D02*
X39421190Y-18309523D01*
X39373571Y-18404761D01*
X39278333Y-18452380D01*
X39183095Y-18452380D01*
X38897380Y-17547619D02*
X38849761Y-17500000D01*
X38754523Y-17452380D01*
X38516428Y-17452380D01*
X38421190Y-17500000D01*
X38373571Y-17547619D01*
X38325952Y-17642857D01*
X38325952Y-17738095D01*
X38373571Y-17880952D01*
X38945000Y-18452380D01*
X38325952Y-18452380D01*
X4133333Y-3604761D02*
X3990476Y-3652380D01*
X3752380Y-3652380D01*
X3657142Y-3604761D01*
X3609523Y-3557142D01*
X3561904Y-3461904D01*
X3561904Y-3366666D01*
X3609523Y-3271428D01*
X3657142Y-3223809D01*
X3752380Y-3176190D01*
X3942857Y-3128571D01*
X4038095Y-3080952D01*
X4085714Y-3033333D01*
X4133333Y-2938095D01*
X4133333Y-2842857D01*
X4085714Y-2747619D01*
X4038095Y-2700000D01*
X3942857Y-2652380D01*
X3704761Y-2652380D01*
X3561904Y-2700000D01*
X3228571Y-2652380D02*
X2990476Y-3652380D01*
X2800000Y-2938095D01*
X2609523Y-3652380D01*
X2371428Y-2652380D01*
X1514285Y-2652380D02*
X1990476Y-2652380D01*
X2038095Y-3128571D01*
X1990476Y-3080952D01*
X1895238Y-3033333D01*
X1657142Y-3033333D01*
X1561904Y-3080952D01*
X1514285Y-3128571D01*
X1466666Y-3223809D01*
X1466666Y-3461904D01*
X1514285Y-3557142D01*
X1561904Y-3604761D01*
X1657142Y-3652380D01*
X1895238Y-3652380D01*
X1990476Y-3604761D01*
X2038095Y-3557142D01*
X7595238Y-43333333D02*
X7547619Y-43190476D01*
X7547619Y-42952380D01*
X7595238Y-42857142D01*
X7642857Y-42809523D01*
X7738095Y-42761904D01*
X7833333Y-42761904D01*
X7928571Y-42809523D01*
X7976190Y-42857142D01*
X8023809Y-42952380D01*
X8071428Y-43142857D01*
X8119047Y-43238095D01*
X8166666Y-43285714D01*
X8261904Y-43333333D01*
X8357142Y-43333333D01*
X8452380Y-43285714D01*
X8500000Y-43238095D01*
X8547619Y-43142857D01*
X8547619Y-42904761D01*
X8500000Y-42761904D01*
X8547619Y-42428571D02*
X7547619Y-42190476D01*
X8261904Y-42000000D01*
X7547619Y-41809523D01*
X8547619Y-41571428D01*
X8452380Y-41238095D02*
X8500000Y-41190476D01*
X8547619Y-41095238D01*
X8547619Y-40857142D01*
X8500000Y-40761904D01*
X8452380Y-40714285D01*
X8357142Y-40666666D01*
X8261904Y-40666666D01*
X8119047Y-40714285D01*
X7547619Y-41285714D01*
X7547619Y-40666666D01*
X7295238Y-65333333D02*
X7247619Y-65190476D01*
X7247619Y-64952380D01*
X7295238Y-64857142D01*
X7342857Y-64809523D01*
X7438095Y-64761904D01*
X7533333Y-64761904D01*
X7628571Y-64809523D01*
X7676190Y-64857142D01*
X7723809Y-64952380D01*
X7771428Y-65142857D01*
X7819047Y-65238095D01*
X7866666Y-65285714D01*
X7961904Y-65333333D01*
X8057142Y-65333333D01*
X8152380Y-65285714D01*
X8200000Y-65238095D01*
X8247619Y-65142857D01*
X8247619Y-64904761D01*
X8200000Y-64761904D01*
X8247619Y-64428571D02*
X7247619Y-64190476D01*
X7961904Y-64000000D01*
X7247619Y-63809523D01*
X8247619Y-63571428D01*
X7247619Y-62666666D02*
X7247619Y-63238095D01*
X7247619Y-62952380D02*
X8247619Y-62952380D01*
X8104761Y-63047619D01*
X8009523Y-63142857D01*
X7961904Y-63238095D01*
X18012380Y-64336666D02*
X18726666Y-64336666D01*
X18869523Y-64289047D01*
X18964761Y-64193809D01*
X19012380Y-64050952D01*
X19012380Y-63955714D01*
X18345714Y-65241428D02*
X19012380Y-65241428D01*
X17964761Y-65003333D02*
X18679047Y-64765238D01*
X18679047Y-65384285D01*
X66040238Y-18352380D02*
X66516428Y-18352380D01*
X66516428Y-17352380D01*
X65706904Y-18352380D02*
X65706904Y-17685714D01*
X65706904Y-17352380D02*
X65754523Y-17400000D01*
X65706904Y-17447619D01*
X65659285Y-17400000D01*
X65706904Y-17352380D01*
X65706904Y-17447619D01*
X64802142Y-17685714D02*
X64802142Y-18495238D01*
X64849761Y-18590476D01*
X64897380Y-18638095D01*
X64992619Y-18685714D01*
X65135476Y-18685714D01*
X65230714Y-18638095D01*
X64802142Y-18304761D02*
X64897380Y-18352380D01*
X65087857Y-18352380D01*
X65183095Y-18304761D01*
X65230714Y-18257142D01*
X65278333Y-18161904D01*
X65278333Y-17876190D01*
X65230714Y-17780952D01*
X65183095Y-17733333D01*
X65087857Y-17685714D01*
X64897380Y-17685714D01*
X64802142Y-17733333D01*
X64325952Y-18352380D02*
X64325952Y-17352380D01*
X63897380Y-18352380D02*
X63897380Y-17828571D01*
X63945000Y-17733333D01*
X64040238Y-17685714D01*
X64183095Y-17685714D01*
X64278333Y-17733333D01*
X64325952Y-17780952D01*
X63564047Y-17685714D02*
X63183095Y-17685714D01*
X63421190Y-17352380D02*
X63421190Y-18209523D01*
X63373571Y-18304761D01*
X63278333Y-18352380D01*
X63183095Y-18352380D01*
X62945000Y-17352380D02*
X62325952Y-17352380D01*
X62659285Y-17733333D01*
X62516428Y-17733333D01*
X62421190Y-17780952D01*
X62373571Y-17828571D01*
X62325952Y-17923809D01*
X62325952Y-18161904D01*
X62373571Y-18257142D01*
X62421190Y-18304761D01*
X62516428Y-18352380D01*
X62802142Y-18352380D01*
X62897380Y-18304761D01*
X62945000Y-18257142D01*
X92305714Y-57928571D02*
X92972380Y-57928571D01*
X91924761Y-57690476D02*
X92639047Y-57452380D01*
X92639047Y-58071428D01*
X92924761Y-58880952D02*
X92972380Y-58785714D01*
X92972380Y-58595238D01*
X92924761Y-58500000D01*
X92877142Y-58452380D01*
X92781904Y-58404761D01*
X92496190Y-58404761D01*
X92400952Y-58452380D01*
X92353333Y-58500000D01*
X92305714Y-58595238D01*
X92305714Y-58785714D01*
X92353333Y-58880952D01*
X92924761Y-59690476D02*
X92972380Y-59595238D01*
X92972380Y-59404761D01*
X92924761Y-59309523D01*
X92829523Y-59261904D01*
X92448571Y-59261904D01*
X92353333Y-59309523D01*
X92305714Y-59404761D01*
X92305714Y-59595238D01*
X92353333Y-59690476D01*
X92448571Y-59738095D01*
X92543809Y-59738095D01*
X92639047Y-59261904D01*
X92972380Y-60309523D02*
X92924761Y-60214285D01*
X92829523Y-60166666D01*
X91972380Y-60166666D01*
X92972380Y-60833333D02*
X92924761Y-60738095D01*
X92829523Y-60690476D01*
X91972380Y-60690476D01*
X92924761Y-61166666D02*
X92972380Y-61261904D01*
X92972380Y-61452380D01*
X92924761Y-61547619D01*
X92829523Y-61595238D01*
X92781904Y-61595238D01*
X92686666Y-61547619D01*
X92639047Y-61452380D01*
X92639047Y-61309523D01*
X92591428Y-61214285D01*
X92496190Y-61166666D01*
X92448571Y-61166666D01*
X92353333Y-61214285D01*
X92305714Y-61309523D01*
X92305714Y-61452380D01*
X92353333Y-61547619D01*
X92972380Y-62547619D02*
X92972380Y-61976190D01*
X92972380Y-62261904D02*
X91972380Y-62261904D01*
X92115238Y-62166666D01*
X92210476Y-62071428D01*
X92258095Y-61976190D01*
D13*
X69785714Y-37476190D02*
X69785714Y-40523809D01*
X50285714Y-37476190D02*
X50285714Y-40523809D01*
X30785714Y-37476190D02*
X30785714Y-40523809D01*
X69785714Y-79476190D02*
X69785714Y-82523809D01*
X71309523Y-81000000D02*
X68261904Y-81000000D01*
X88685714Y-79476190D02*
X88685714Y-82523809D01*
X90209523Y-81000000D02*
X87161904Y-81000000D01*
X30785714Y-79476190D02*
X30785714Y-82523809D01*
X32309523Y-81000000D02*
X29261904Y-81000000D01*
X50285714Y-79476190D02*
X50285714Y-82523809D01*
X51809523Y-81000000D02*
X48761904Y-81000000D01*
X88785714Y-37476190D02*
X88785714Y-40523809D01*
D14*
X84500000Y-14000000D02*
X85000000Y-13500000D01*
X95860000Y-7440000D02*
X95860000Y1100000D01*
X81140000Y1100000D02*
X95860000Y1100000D01*
X81140000Y-7440000D02*
X81140000Y1100000D01*
X85000000Y-13500000D02*
X85500000Y-14000000D01*
X85500000Y-14000000D02*
X84500000Y-14000000D01*
X95860000Y-11140000D02*
X95860000Y-13120000D01*
X81140000Y-13120000D02*
X95860000Y-13120000D01*
X81140000Y-13120000D02*
X81140000Y-11140000D01*
D15*
X7262500Y-48500000D02*
X-1687500Y-48500000D01*
X13512500Y-50450000D02*
X13512500Y-48500000D01*
X13512500Y-48500000D02*
X12362500Y-48500000D01*
X-1687500Y-57500000D02*
X13512500Y-57500000D01*
X13512500Y-57500000D02*
X13512500Y-55650000D01*
X-1687500Y-48500000D02*
X-1687500Y-57500000D01*
D16*
X15012500Y-53000000D02*
G75*
G03*
X15012500Y-53000000I-200000J0D01*
G01*
D14*
X8366529Y-75060000D02*
X8235000Y-75060000D01*
X8235000Y-75060000D02*
X8235000Y-75262470D01*
X9690000Y-74863471D02*
X9690000Y-75006529D01*
X8235000Y-76700000D02*
X14705000Y-76700000D01*
X8930000Y-73170000D02*
X8170000Y-73170000D01*
X14705000Y-75877530D02*
X14705000Y-76700000D01*
X9690000Y-73170000D02*
X14705000Y-73170000D01*
X9636529Y-75060000D02*
X9493471Y-75060000D01*
X8170000Y-73170000D02*
X8170000Y-74300000D01*
X14705000Y-74607530D02*
X14705000Y-75262470D01*
X8235000Y-75877530D02*
X8235000Y-76700000D01*
X9690000Y-73170000D02*
X9690000Y-73736529D01*
X14705000Y-73170000D02*
X14705000Y-73992470D01*
X8000000Y-12500000D02*
X8500000Y-13000000D01*
X24205000Y-16880000D02*
X24205000Y1080000D01*
X8685000Y-16880000D02*
X8685000Y1080000D01*
X8000000Y-13500000D02*
X8000000Y-12500000D01*
X8685000Y1080000D02*
X24205000Y1080000D01*
X8500000Y-13000000D02*
X8000000Y-13500000D01*
X24205000Y-16880000D02*
X8685000Y-16880000D01*
D17*
X89225000Y-13920000D02*
X89225000Y-14420000D01*
X94365000Y-20500000D02*
X93865000Y-20500000D01*
X89225000Y-13920000D02*
X89725000Y-13920000D01*
X89215000Y-20490000D02*
X89215000Y-19990000D01*
X89215000Y-20490000D02*
X89715000Y-20490000D01*
X94365000Y-13900000D02*
X94365000Y-14400000D01*
X94365000Y-20500000D02*
X94365000Y-20000000D01*
X94365000Y-13900000D02*
X93865000Y-13900000D01*
D14*
X32685000Y-16880000D02*
X32685000Y1080000D01*
X32000000Y-13500000D02*
X32000000Y-12500000D01*
X48205000Y-16880000D02*
X32685000Y-16880000D01*
X32500000Y-13000000D02*
X32000000Y-13500000D01*
X48205000Y-16880000D02*
X48205000Y1080000D01*
X32685000Y1080000D02*
X48205000Y1080000D01*
X32000000Y-12500000D02*
X32500000Y-13000000D01*
D17*
X10700000Y-70300000D02*
X11200000Y-70300000D01*
X10700000Y-70300000D02*
X10700000Y-69800000D01*
X17300000Y-70300000D02*
X17300000Y-69800000D01*
X17300000Y-70300000D02*
X16800000Y-70300000D01*
D14*
X72205000Y-16780000D02*
X72205000Y1180000D01*
X56000000Y-12400000D02*
X56500000Y-12900000D01*
X56685000Y1180000D02*
X72205000Y1180000D01*
X56000000Y-13400000D02*
X56000000Y-12400000D01*
X56500000Y-12900000D02*
X56000000Y-13400000D01*
X72205000Y-16780000D02*
X56685000Y-16780000D01*
X56685000Y-16780000D02*
X56685000Y1180000D01*
X20080000Y-98990000D02*
X98920000Y-98990000D01*
X20080000Y-21010000D02*
X20080000Y-98990000D01*
X98920000Y-98990000D02*
X98920000Y-21010000D01*
X98920000Y-21010000D02*
X20080000Y-21010000D01*
%LPC*%
D18*
X76500000Y-17000000D03*
X52500000Y-17000000D03*
X28500000Y-17000000D03*
D19*
X38050000Y-86950000D03*
X33950000Y-91050000D03*
X38050000Y-80950000D03*
X33950000Y-85050000D03*
D20*
X85000000Y-12000000D03*
D21*
X87500000Y-12000000D03*
X89500000Y-12000000D03*
X92000000Y-12000000D03*
D22*
X81930000Y-9290000D03*
X95070000Y-9290000D03*
D23*
X2312500Y-53000000D03*
D24*
X12812500Y-53000000D03*
X6812500Y-53000000D03*
D25*
X9812500Y-48300000D03*
D26*
X3000000Y-33250000D03*
X3000000Y-28750000D03*
D27*
X5500000Y-34500000D03*
X5500000Y-27500000D03*
D28*
X8930000Y-74300000D03*
D29*
X8930000Y-75570000D03*
X10200000Y-74300000D03*
X10200000Y-75570000D03*
X11470000Y-74300000D03*
X11470000Y-75570000D03*
X12740000Y-74300000D03*
X12740000Y-75570000D03*
X14010000Y-74300000D03*
X14010000Y-75570000D03*
D26*
X3000000Y-22250000D03*
X3000000Y-17750000D03*
D27*
X5500000Y-23500000D03*
X5500000Y-16500000D03*
D30*
X22160000Y-6650000D03*
X10730000Y-6650000D03*
D31*
X12000000Y-13000000D03*
D32*
X13270000Y-15540000D03*
X14540000Y-13000000D03*
X15810000Y-15540000D03*
X17080000Y-13000000D03*
X18350000Y-15540000D03*
X19620000Y-13000000D03*
X20890000Y-15540000D03*
D33*
X93065000Y-17200000D03*
X90525000Y-17200000D03*
D30*
X34730000Y-6650000D03*
X46160000Y-6650000D03*
D31*
X36000000Y-13000000D03*
D32*
X37270000Y-15540000D03*
X38540000Y-13000000D03*
X39810000Y-15540000D03*
X41080000Y-13000000D03*
X42350000Y-15540000D03*
X43620000Y-13000000D03*
X44890000Y-15540000D03*
D26*
X3000000Y-11250000D03*
X3000000Y-6750000D03*
D27*
X5500000Y-12500000D03*
X5500000Y-5500000D03*
D26*
X3000000Y-44250000D03*
X3000000Y-39750000D03*
D27*
X5500000Y-45500000D03*
X5500000Y-38500000D03*
D26*
X3000000Y-66250000D03*
X3000000Y-61750000D03*
D27*
X5500000Y-67500000D03*
X5500000Y-60500000D03*
D33*
X14000000Y-69000000D03*
X14000000Y-66460000D03*
X14000000Y-63920000D03*
X14000000Y-61380000D03*
D30*
X58730000Y-6550000D03*
X70160000Y-6550000D03*
D31*
X60000000Y-12900000D03*
D32*
X61270000Y-15440000D03*
X62540000Y-12900000D03*
X63810000Y-15440000D03*
X65080000Y-12900000D03*
X66350000Y-15440000D03*
X67620000Y-12900000D03*
X68890000Y-15440000D03*
D30*
X88455000Y-32195000D03*
X30555000Y-87805000D03*
X30555000Y-32195000D03*
X49855000Y-87805000D03*
X69155000Y-87805000D03*
X88455000Y-87805000D03*
X69155000Y-32195000D03*
X49855000Y-32195000D03*
D34*
X88455000Y-96450000D03*
X88455000Y-23550000D03*
X69150000Y-96450000D03*
X69150000Y-23550000D03*
X49850000Y-96450000D03*
X49850000Y-23550000D03*
X30545000Y-96450000D03*
X30545000Y-23550000D03*
M02*
