M48
; DRILL file {KiCad (6.0.6)} date Wed Oct 25 22:22:23 2023
; FORMAT={-:-/ absolute / metric / decimal}
; #@! TF.CreationDate,2023-10-25T22:22:23+02:00
; #@! TF.GenerationSoftware,Kicad,Pcbnew,(6.0.6)
; #@! TF.FileFunction,Plated,1,6,PTH
FMAT,2
METRIC
; #@! TA.AperFunction,Plated,PTH,ViaDrill
T1C0.400
; #@! TA.AperFunction,Plated,PTH,ComponentDrill
T2C0.650
; #@! TA.AperFunction,Plated,PTH,ComponentDrill
T3C0.760
; #@! TA.AperFunction,Plated,PTH,ComponentDrill
T4C0.920
; #@! TA.AperFunction,Plated,PTH,ComponentDrill
T5C1.000
; #@! TA.AperFunction,Plated,PTH,ComponentDrill
T6C1.020
; #@! TA.AperFunction,Plated,PTH,ComponentDrill
T7C1.300
; #@! TA.AperFunction,Plated,PTH,ComponentDrill
T8C1.600
; #@! TA.AperFunction,Plated,PTH,ComponentDrill
T9C2.300
%
G90
G05
T1
X5.5Y-95.5
X6.0Y-96.8
X6.5Y-95.5
X6.8Y-75.1
X6.8Y-76.2
X6.9Y-19.0
X6.9Y-20.7
X6.9Y-83.2
X6.9Y-84.1
X6.9Y-85.0
X6.9Y-85.9
X6.9Y-86.8
X6.9Y-87.7
X6.9Y-88.6
X6.9Y-89.5
X6.9Y-90.4
X6.9Y-91.3
X6.9Y-92.8
X7.0Y-96.8
X7.3Y-2.9
X7.5Y-39.7
X7.5Y-95.5
X7.6Y-81.2
X7.9Y-78.2
X8.3Y-82.0
X8.3Y-92.8
X8.8Y-78.8
X9.3Y-92.8
X9.4Y-82.0
X9.7Y-85.4
X10.0Y-95.4
X10.1Y-89.5
X10.15Y-81.2
X10.15Y-91.9
X10.3Y-22.3
X10.5Y-98.2
X11.0Y-78.7
X11.0Y-83.9
X11.0Y-92.7
X11.1Y-91.5
X11.2Y-38.4
X12.0Y-21.0
X12.0Y-25.0
X12.0Y-28.3
X12.4Y-44.6
X12.4Y-83.9
X12.5Y-90.0
X12.7Y-96.4
X12.8Y-41.1
X13.184Y-92.445
X13.5Y-91.3
X14.117Y-92.086
X14.2Y-37.1
X14.4Y-33.9
X14.4Y-77.7
X15.1Y-95.9
X15.25Y-78.5
X15.3Y-77.2
X15.8Y-85.3
X15.8Y-86.8
X16.1Y-77.9
X16.1Y-92.0
X16.4Y-36.3
X16.95Y-92.7
X17.1Y-77.3
X17.4Y-34.6
X17.767Y-83.693
X18.0Y-92.7
X18.0Y-97.8
X18.1Y-77.9
X18.1Y-82.75
X18.6Y-81.1
X19.45Y-38.0
X20.9Y-91.25
X21.2Y-94.376
X21.3Y-87.0
X21.4Y-85.3
X21.4Y-96.0
X21.4Y-97.0
X22.0Y-55.1
X22.0Y-57.1
X22.1Y-86.15
X22.2Y-84.45
X22.6Y-81.9
X22.6Y-82.9
X22.7Y-77.9
X22.8Y-18.2
X22.9Y-92.8
X23.4Y-78.7
X24.1Y-41.5
X24.49Y-71.36
X24.5Y-51.4
X24.5Y-52.4
X25.6Y-51.4
X25.6Y-52.4
X26.0Y-13.0
X26.0Y-45.8
X26.0Y-46.7
X26.2Y-64.9
X26.4Y-90.0
X26.7Y-51.4
X26.7Y-52.4
X26.9Y-53.7
X27.0Y-13.0
X29.225Y-46.6
X30.3Y-46.6
X30.8Y-49.4
X30.9Y-48.3
X31.9Y-44.9
X31.9Y-46.0
X32.8Y-37.9
X33.4Y-47.4
X33.6Y-69.6
X34.2Y-17.5
X34.7Y-39.9
X34.9Y-72.9
X35.0Y-63.8
X35.1Y-81.4
X35.1Y-87.2
X36.1Y-81.4
X36.1Y-87.2
X36.4Y-73.4
X36.6Y-26.9
X36.8Y-25.7
X37.5Y-33.8
X37.5Y-63.8
X37.9Y-34.8
X38.3Y-79.1
X38.5Y-18.9
X38.8Y-68.0
X39.3Y-86.3
X39.5Y-81.3
X39.8Y-44.5
X41.0Y-49.3
X41.9Y-44.9
X42.3Y-33.8
X42.3Y-80.3
X42.3Y-81.3
X42.5Y-31.1
X42.6Y-90.8
X42.9Y-48.7
X45.0Y-68.3
X46.87Y-73.4
X47.0Y-18.3
X50.9Y-79.9
X51.4Y-80.8
X52.7Y-72.8
X56.1Y-70.0
X56.7Y-91.1
X57.0Y-67.0
X57.1Y-23.7
X57.2Y-17.6
X57.4Y-35.8
X57.4Y-36.8
X57.5Y-64.7
X57.5Y-65.8
X58.1Y-23.7
X58.5Y-78.9
X59.0Y-67.0
X59.7Y-25.0
X59.8Y-62.2
X59.8Y-67.8
X61.2Y-53.8
X61.3Y-62.2
X61.5Y-18.7
X62.0Y-34.3
X62.0Y-36.8
X62.1Y-80.1
X62.5Y-62.2
X63.1Y-63.3
X63.1Y-67.9
X63.1Y-80.5
X67.3Y-80.8
X67.7Y-66.2
X68.6Y-19.4
X68.8Y-49.3
X69.1Y-68.1
X70.4Y-74.9
X71.4Y-74.1
X72.9Y-49.4
X74.5Y-79.8
X74.7Y-76.2
X75.6Y-49.9
X75.9Y-91.1
X78.2Y-49.9
X79.8Y-38.0
X79.8Y-39.0
X80.3Y-15.8
X80.3Y-19.4
X81.2Y-49.5
X81.6Y-55.5
X83.2Y-49.2
X85.0Y-39.0
X86.5Y-40.5
X86.5Y-45.6
X86.5Y-58.6
X86.7Y-36.9
X88.3Y-16.1
X89.9Y-49.8
X90.2Y-81.0
X91.0Y-59.4
X91.0Y-63.5
X91.0Y-67.6
X91.0Y-71.7
X91.6Y-49.8
X93.0Y-45.8
X95.3Y-17.5
X95.8Y-40.7
T2
X8.93Y-74.3
X8.93Y-75.57
X10.2Y-74.3
X10.2Y-75.57
X11.47Y-74.3
X11.47Y-75.57
X12.74Y-74.3
X12.74Y-75.57
X14.01Y-74.3
X14.01Y-75.57
T3
X12.0Y-13.0
X13.27Y-15.54
X14.54Y-13.0
X15.81Y-15.54
X17.08Y-13.0
X18.35Y-15.54
X19.62Y-13.0
X20.89Y-15.54
X36.0Y-13.0
X37.27Y-15.54
X38.54Y-13.0
X39.81Y-15.54
X41.08Y-13.0
X42.35Y-15.54
X43.62Y-13.0
X44.89Y-15.54
X60.0Y-12.9
X61.27Y-15.44
X62.54Y-12.9
X63.81Y-15.44
X65.08Y-12.9
X66.35Y-15.44
X67.62Y-12.9
X68.89Y-15.44
T4
X85.0Y-12.0
X87.5Y-12.0
X89.5Y-12.0
X92.0Y-12.0
T5
X3.0Y-6.75
X3.0Y-11.25
X3.0Y-17.75
X3.0Y-22.25
X3.0Y-28.75
X3.0Y-33.25
X3.0Y-39.75
X3.0Y-44.25
X3.0Y-61.75
X3.0Y-66.25
T6
X14.0Y-61.38
X14.0Y-63.92
X14.0Y-66.46
X14.0Y-69.0
X90.525Y-17.2
X93.065Y-17.2
T7
X5.5Y-5.5
X5.5Y-12.5
X5.5Y-16.5
X5.5Y-23.5
X5.5Y-27.5
X5.5Y-34.5
X5.5Y-38.5
X5.5Y-45.5
X5.5Y-60.5
X5.5Y-67.5
T8
X30.545Y-23.55
X30.545Y-96.45
X49.85Y-23.55
X49.85Y-96.45
X69.15Y-23.55
X69.15Y-96.45
X88.455Y-23.55
X88.455Y-96.45
T9
X81.93Y-9.29
X95.07Y-9.29
T5
X6.812Y-53.3G85X6.812Y-52.7
G05
X10.112Y-48.3G85X9.512Y-48.3
G05
X12.812Y-53.3G85X12.812Y-52.7
G05
T0
M30
