%FSLAX45Y45*%
G04 Gerber Fmt 4.5, Leading zero omitted, Abs format (unit mm)*
G04 Created by KiCad (PCBNEW (6.0.6)) date 2023-10-25 22:22:26*
%MOMM*%
%LPD*%
G01*
G04 APERTURE LIST*
%TA.AperFunction,Profile*%
%ADD10C,0.050000*%
%TD*%
%ADD11C,0.200000*%
%ADD12C,0.061000*%
%ADD13C,0.220000*%
%ADD14C,0.270000*%
%ADD15C,0.320000*%
G04 APERTURE END LIST*
D10*
X0Y-10000000D02*
X10000000Y-10000000D01*
X0Y-10000000D02*
X0Y0D01*
X10000000Y0D02*
X10000000Y-10000000D01*
X10000000Y0D02*
X0Y0D01*
D11*
D12*
X3364500Y-8474500D02*
X3425500Y-8535500D01*
X3425500Y-8474500D02*
X3364500Y-8535500D01*
X3364500Y-9074500D02*
X3425500Y-9135500D01*
X3425500Y-9074500D02*
X3364500Y-9135500D01*
X3774500Y-8064500D02*
X3835500Y-8125500D01*
X3835500Y-8064500D02*
X3774500Y-8125500D01*
X3774500Y-8664500D02*
X3835500Y-8725500D01*
X3835500Y-8664500D02*
X3774500Y-8725500D01*
D13*
X341250Y-5300000D02*
G75*
G03*
X341250Y-5300000I-110000J0D01*
G01*
D14*
X2850000Y-1565000D02*
X2850000Y-1835000D01*
X2715000Y-1700000D02*
X2985000Y-1700000D01*
X5250000Y-1565000D02*
X5250000Y-1835000D01*
X5115000Y-1700000D02*
X5385000Y-1700000D01*
X7650000Y-1565000D02*
X7650000Y-1835000D01*
X7515000Y-1700000D02*
X7785000Y-1700000D01*
D15*
X1186138Y-778138D02*
X1186138Y-551862D01*
X959862Y-551862D01*
X959862Y-778138D01*
X1186138Y-778138D01*
X2329138Y-778138D02*
X2329138Y-551862D01*
X2102862Y-551862D01*
X2102862Y-778138D01*
X2329138Y-778138D01*
X3168638Y-3332638D02*
X3168638Y-3106362D01*
X2942362Y-3106362D01*
X2942362Y-3332638D01*
X3168638Y-3332638D01*
X3168638Y-8893638D02*
X3168638Y-8667362D01*
X2942362Y-8667362D01*
X2942362Y-8893638D01*
X3168638Y-8893638D01*
X3586138Y-778138D02*
X3586138Y-551862D01*
X3359862Y-551862D01*
X3359862Y-778138D01*
X3586138Y-778138D01*
X4729138Y-778138D02*
X4729138Y-551862D01*
X4502862Y-551862D01*
X4502862Y-778138D01*
X4729138Y-778138D01*
X5098638Y-3332638D02*
X5098638Y-3106362D01*
X4872362Y-3106362D01*
X4872362Y-3332638D01*
X5098638Y-3332638D01*
X5098638Y-8893638D02*
X5098638Y-8667362D01*
X4872362Y-8667362D01*
X4872362Y-8893638D01*
X5098638Y-8893638D01*
X5986138Y-768138D02*
X5986138Y-541862D01*
X5759862Y-541862D01*
X5759862Y-768138D01*
X5986138Y-768138D01*
X7028638Y-3332638D02*
X7028638Y-3106362D01*
X6802362Y-3106362D01*
X6802362Y-3332638D01*
X7028638Y-3332638D01*
X7028638Y-8893638D02*
X7028638Y-8667362D01*
X6802362Y-8667362D01*
X6802362Y-8893638D01*
X7028638Y-8893638D01*
X7129138Y-768138D02*
X7129138Y-541862D01*
X6902862Y-541862D01*
X6902862Y-768138D01*
X7129138Y-768138D01*
X8958638Y-3332638D02*
X8958638Y-3106362D01*
X8732362Y-3106362D01*
X8732362Y-3332638D01*
X8958638Y-3332638D01*
X8958638Y-8893638D02*
X8958638Y-8667362D01*
X8732362Y-8667362D01*
X8732362Y-8893638D01*
X8958638Y-8893638D01*
D11*
X255119Y-10312976D02*
X255119Y-10112976D01*
X302738Y-10112976D01*
X331310Y-10122500D01*
X350357Y-10141548D01*
X359881Y-10160595D01*
X369405Y-10198690D01*
X369405Y-10227262D01*
X359881Y-10265357D01*
X350357Y-10284405D01*
X331310Y-10303452D01*
X302738Y-10312976D01*
X255119Y-10312976D01*
X455119Y-10312976D02*
X455119Y-10179643D01*
X455119Y-10217738D02*
X464643Y-10198690D01*
X474167Y-10189167D01*
X493214Y-10179643D01*
X512262Y-10179643D01*
X578929Y-10312976D02*
X578929Y-10179643D01*
X578929Y-10112976D02*
X569405Y-10122500D01*
X578929Y-10132024D01*
X588452Y-10122500D01*
X578929Y-10112976D01*
X578929Y-10132024D01*
X702738Y-10312976D02*
X683690Y-10303452D01*
X674167Y-10284405D01*
X674167Y-10112976D01*
X807500Y-10312976D02*
X788452Y-10303452D01*
X778928Y-10284405D01*
X778928Y-10112976D01*
X1036071Y-10312976D02*
X1036071Y-10112976D01*
X1102738Y-10255833D01*
X1169405Y-10112976D01*
X1169405Y-10312976D01*
X1350357Y-10312976D02*
X1350357Y-10208214D01*
X1340833Y-10189167D01*
X1321786Y-10179643D01*
X1283690Y-10179643D01*
X1264643Y-10189167D01*
X1350357Y-10303452D02*
X1331310Y-10312976D01*
X1283690Y-10312976D01*
X1264643Y-10303452D01*
X1255119Y-10284405D01*
X1255119Y-10265357D01*
X1264643Y-10246310D01*
X1283690Y-10236786D01*
X1331310Y-10236786D01*
X1350357Y-10227262D01*
X1445595Y-10179643D02*
X1445595Y-10379643D01*
X1445595Y-10189167D02*
X1464643Y-10179643D01*
X1502738Y-10179643D01*
X1521786Y-10189167D01*
X1531309Y-10198690D01*
X1540833Y-10217738D01*
X1540833Y-10274881D01*
X1531309Y-10293929D01*
X1521786Y-10303452D01*
X1502738Y-10312976D01*
X1464643Y-10312976D01*
X1445595Y-10303452D01*
X1626548Y-10293929D02*
X1636071Y-10303452D01*
X1626548Y-10312976D01*
X1617024Y-10303452D01*
X1626548Y-10293929D01*
X1626548Y-10312976D01*
X1626548Y-10189167D02*
X1636071Y-10198690D01*
X1626548Y-10208214D01*
X1617024Y-10198690D01*
X1626548Y-10189167D01*
X1626548Y-10208214D01*
D12*
X-63500Y-10612000D02*
X-2500Y-10673000D01*
X-2500Y-10612000D02*
X-63500Y-10673000D01*
D11*
X293214Y-10532976D02*
X312262Y-10532976D01*
X331310Y-10542500D01*
X340833Y-10552024D01*
X350357Y-10571071D01*
X359881Y-10609167D01*
X359881Y-10656786D01*
X350357Y-10694881D01*
X340833Y-10713929D01*
X331310Y-10723452D01*
X312262Y-10732976D01*
X293214Y-10732976D01*
X274167Y-10723452D01*
X264643Y-10713929D01*
X255119Y-10694881D01*
X245595Y-10656786D01*
X245595Y-10609167D01*
X255119Y-10571071D01*
X264643Y-10552024D01*
X274167Y-10542500D01*
X293214Y-10532976D01*
X445595Y-10713929D02*
X455119Y-10723452D01*
X445595Y-10732976D01*
X436071Y-10723452D01*
X445595Y-10713929D01*
X445595Y-10732976D01*
X626548Y-10532976D02*
X588452Y-10532976D01*
X569405Y-10542500D01*
X559881Y-10552024D01*
X540833Y-10580595D01*
X531310Y-10618690D01*
X531310Y-10694881D01*
X540833Y-10713929D01*
X550357Y-10723452D01*
X569405Y-10732976D01*
X607500Y-10732976D01*
X626548Y-10723452D01*
X636071Y-10713929D01*
X645595Y-10694881D01*
X645595Y-10647262D01*
X636071Y-10628214D01*
X626548Y-10618690D01*
X607500Y-10609167D01*
X569405Y-10609167D01*
X550357Y-10618690D01*
X540833Y-10628214D01*
X531310Y-10647262D01*
X836071Y-10732976D02*
X721786Y-10732976D01*
X778928Y-10732976D02*
X778928Y-10532976D01*
X759881Y-10561548D01*
X740833Y-10580595D01*
X721786Y-10590119D01*
X959881Y-10532976D02*
X978928Y-10532976D01*
X997976Y-10542500D01*
X1007500Y-10552024D01*
X1017024Y-10571071D01*
X1026548Y-10609167D01*
X1026548Y-10656786D01*
X1017024Y-10694881D01*
X1007500Y-10713929D01*
X997976Y-10723452D01*
X978928Y-10732976D01*
X959881Y-10732976D01*
X940833Y-10723452D01*
X931309Y-10713929D01*
X921786Y-10694881D01*
X912262Y-10656786D01*
X912262Y-10609167D01*
X921786Y-10571071D01*
X931309Y-10552024D01*
X940833Y-10542500D01*
X959881Y-10532976D01*
X1112262Y-10732976D02*
X1112262Y-10599643D01*
X1112262Y-10618690D02*
X1121786Y-10609167D01*
X1140833Y-10599643D01*
X1169405Y-10599643D01*
X1188452Y-10609167D01*
X1197976Y-10628214D01*
X1197976Y-10732976D01*
X1197976Y-10628214D02*
X1207500Y-10609167D01*
X1226548Y-10599643D01*
X1255119Y-10599643D01*
X1274167Y-10609167D01*
X1283690Y-10628214D01*
X1283690Y-10732976D01*
X1378929Y-10732976D02*
X1378929Y-10599643D01*
X1378929Y-10618690D02*
X1388452Y-10609167D01*
X1407500Y-10599643D01*
X1436071Y-10599643D01*
X1455119Y-10609167D01*
X1464643Y-10628214D01*
X1464643Y-10732976D01*
X1464643Y-10628214D02*
X1474167Y-10609167D01*
X1493214Y-10599643D01*
X1521786Y-10599643D01*
X1540833Y-10609167D01*
X1550357Y-10628214D01*
X1550357Y-10732976D01*
X1940833Y-10523452D02*
X1769405Y-10780595D01*
X2197976Y-10532976D02*
X2217024Y-10532976D01*
X2236071Y-10542500D01*
X2245595Y-10552024D01*
X2255119Y-10571071D01*
X2264643Y-10609167D01*
X2264643Y-10656786D01*
X2255119Y-10694881D01*
X2245595Y-10713929D01*
X2236071Y-10723452D01*
X2217024Y-10732976D01*
X2197976Y-10732976D01*
X2178929Y-10723452D01*
X2169405Y-10713929D01*
X2159881Y-10694881D01*
X2150357Y-10656786D01*
X2150357Y-10609167D01*
X2159881Y-10571071D01*
X2169405Y-10552024D01*
X2178929Y-10542500D01*
X2197976Y-10532976D01*
X2350357Y-10713929D02*
X2359881Y-10723452D01*
X2350357Y-10732976D01*
X2340833Y-10723452D01*
X2350357Y-10713929D01*
X2350357Y-10732976D01*
X2483690Y-10532976D02*
X2502738Y-10532976D01*
X2521786Y-10542500D01*
X2531310Y-10552024D01*
X2540833Y-10571071D01*
X2550357Y-10609167D01*
X2550357Y-10656786D01*
X2540833Y-10694881D01*
X2531310Y-10713929D01*
X2521786Y-10723452D01*
X2502738Y-10732976D01*
X2483690Y-10732976D01*
X2464643Y-10723452D01*
X2455119Y-10713929D01*
X2445595Y-10694881D01*
X2436071Y-10656786D01*
X2436071Y-10609167D01*
X2445595Y-10571071D01*
X2455119Y-10552024D01*
X2464643Y-10542500D01*
X2483690Y-10532976D01*
X2626548Y-10552024D02*
X2636071Y-10542500D01*
X2655119Y-10532976D01*
X2702738Y-10532976D01*
X2721786Y-10542500D01*
X2731310Y-10552024D01*
X2740833Y-10571071D01*
X2740833Y-10590119D01*
X2731310Y-10618690D01*
X2617024Y-10732976D01*
X2740833Y-10732976D01*
X2912262Y-10599643D02*
X2912262Y-10732976D01*
X2864643Y-10523452D02*
X2817024Y-10666310D01*
X2940833Y-10666310D01*
X3055119Y-10532976D02*
X3074167Y-10532976D01*
X3093214Y-10542500D01*
X3102738Y-10552024D01*
X3112262Y-10571071D01*
X3121786Y-10609167D01*
X3121786Y-10656786D01*
X3112262Y-10694881D01*
X3102738Y-10713929D01*
X3093214Y-10723452D01*
X3074167Y-10732976D01*
X3055119Y-10732976D01*
X3036071Y-10723452D01*
X3026548Y-10713929D01*
X3017024Y-10694881D01*
X3007500Y-10656786D01*
X3007500Y-10609167D01*
X3017024Y-10571071D01*
X3026548Y-10552024D01*
X3036071Y-10542500D01*
X3055119Y-10532976D01*
X3197976Y-10532976D02*
X3197976Y-10571071D01*
X3274167Y-10532976D02*
X3274167Y-10571071D01*
X3569405Y-10809167D02*
X3559881Y-10799643D01*
X3540833Y-10771071D01*
X3531309Y-10752024D01*
X3521786Y-10723452D01*
X3512262Y-10675833D01*
X3512262Y-10637738D01*
X3521786Y-10590119D01*
X3531309Y-10561548D01*
X3540833Y-10542500D01*
X3559881Y-10513929D01*
X3569405Y-10504405D01*
X3731309Y-10599643D02*
X3731309Y-10732976D01*
X3683690Y-10523452D02*
X3636071Y-10666310D01*
X3759881Y-10666310D01*
X3988452Y-10732976D02*
X3988452Y-10532976D01*
X4074167Y-10732976D02*
X4074167Y-10628214D01*
X4064643Y-10609167D01*
X4045595Y-10599643D01*
X4017024Y-10599643D01*
X3997976Y-10609167D01*
X3988452Y-10618690D01*
X4197976Y-10732976D02*
X4178928Y-10723452D01*
X4169405Y-10713929D01*
X4159881Y-10694881D01*
X4159881Y-10637738D01*
X4169405Y-10618690D01*
X4178928Y-10609167D01*
X4197976Y-10599643D01*
X4226548Y-10599643D01*
X4245595Y-10609167D01*
X4255119Y-10618690D01*
X4264643Y-10637738D01*
X4264643Y-10694881D01*
X4255119Y-10713929D01*
X4245595Y-10723452D01*
X4226548Y-10732976D01*
X4197976Y-10732976D01*
X4378929Y-10732976D02*
X4359881Y-10723452D01*
X4350357Y-10704405D01*
X4350357Y-10532976D01*
X4531310Y-10723452D02*
X4512262Y-10732976D01*
X4474167Y-10732976D01*
X4455119Y-10723452D01*
X4445595Y-10704405D01*
X4445595Y-10628214D01*
X4455119Y-10609167D01*
X4474167Y-10599643D01*
X4512262Y-10599643D01*
X4531310Y-10609167D01*
X4540833Y-10628214D01*
X4540833Y-10647262D01*
X4445595Y-10666310D01*
X4617024Y-10723452D02*
X4636071Y-10732976D01*
X4674167Y-10732976D01*
X4693214Y-10723452D01*
X4702738Y-10704405D01*
X4702738Y-10694881D01*
X4693214Y-10675833D01*
X4674167Y-10666310D01*
X4645595Y-10666310D01*
X4626548Y-10656786D01*
X4617024Y-10637738D01*
X4617024Y-10628214D01*
X4626548Y-10609167D01*
X4645595Y-10599643D01*
X4674167Y-10599643D01*
X4693214Y-10609167D01*
X4769405Y-10809167D02*
X4778929Y-10799643D01*
X4797976Y-10771071D01*
X4807500Y-10752024D01*
X4817024Y-10723452D01*
X4826548Y-10675833D01*
X4826548Y-10637738D01*
X4817024Y-10590119D01*
X4807500Y-10561548D01*
X4797976Y-10542500D01*
X4778929Y-10513929D01*
X4769405Y-10504405D01*
X5131310Y-10809167D02*
X5121786Y-10799643D01*
X5102738Y-10771071D01*
X5093214Y-10752024D01*
X5083690Y-10723452D01*
X5074167Y-10675833D01*
X5074167Y-10637738D01*
X5083690Y-10590119D01*
X5093214Y-10561548D01*
X5102738Y-10542500D01*
X5121786Y-10513929D01*
X5131310Y-10504405D01*
X5207500Y-10599643D02*
X5207500Y-10732976D01*
X5207500Y-10618690D02*
X5217024Y-10609167D01*
X5236071Y-10599643D01*
X5264643Y-10599643D01*
X5283690Y-10609167D01*
X5293214Y-10628214D01*
X5293214Y-10732976D01*
X5417024Y-10732976D02*
X5397976Y-10723452D01*
X5388452Y-10713929D01*
X5378929Y-10694881D01*
X5378929Y-10637738D01*
X5388452Y-10618690D01*
X5397976Y-10609167D01*
X5417024Y-10599643D01*
X5445595Y-10599643D01*
X5464643Y-10609167D01*
X5474167Y-10618690D01*
X5483690Y-10637738D01*
X5483690Y-10694881D01*
X5474167Y-10713929D01*
X5464643Y-10723452D01*
X5445595Y-10732976D01*
X5417024Y-10732976D01*
X5540833Y-10599643D02*
X5617024Y-10599643D01*
X5569405Y-10532976D02*
X5569405Y-10704405D01*
X5578929Y-10723452D01*
X5597976Y-10732976D01*
X5617024Y-10732976D01*
X5836071Y-10599643D02*
X5836071Y-10799643D01*
X5836071Y-10609167D02*
X5855119Y-10599643D01*
X5893214Y-10599643D01*
X5912262Y-10609167D01*
X5921786Y-10618690D01*
X5931309Y-10637738D01*
X5931309Y-10694881D01*
X5921786Y-10713929D01*
X5912262Y-10723452D01*
X5893214Y-10732976D01*
X5855119Y-10732976D01*
X5836071Y-10723452D01*
X6045595Y-10732976D02*
X6026548Y-10723452D01*
X6017024Y-10704405D01*
X6017024Y-10532976D01*
X6207500Y-10732976D02*
X6207500Y-10628214D01*
X6197976Y-10609167D01*
X6178928Y-10599643D01*
X6140833Y-10599643D01*
X6121786Y-10609167D01*
X6207500Y-10723452D02*
X6188452Y-10732976D01*
X6140833Y-10732976D01*
X6121786Y-10723452D01*
X6112262Y-10704405D01*
X6112262Y-10685357D01*
X6121786Y-10666310D01*
X6140833Y-10656786D01*
X6188452Y-10656786D01*
X6207500Y-10647262D01*
X6274167Y-10599643D02*
X6350357Y-10599643D01*
X6302738Y-10532976D02*
X6302738Y-10704405D01*
X6312262Y-10723452D01*
X6331309Y-10732976D01*
X6350357Y-10732976D01*
X6493214Y-10723452D02*
X6474167Y-10732976D01*
X6436071Y-10732976D01*
X6417024Y-10723452D01*
X6407500Y-10704405D01*
X6407500Y-10628214D01*
X6417024Y-10609167D01*
X6436071Y-10599643D01*
X6474167Y-10599643D01*
X6493214Y-10609167D01*
X6502738Y-10628214D01*
X6502738Y-10647262D01*
X6407500Y-10666310D01*
X6674167Y-10732976D02*
X6674167Y-10532976D01*
X6674167Y-10723452D02*
X6655119Y-10732976D01*
X6617024Y-10732976D01*
X6597976Y-10723452D01*
X6588452Y-10713929D01*
X6578928Y-10694881D01*
X6578928Y-10637738D01*
X6588452Y-10618690D01*
X6597976Y-10609167D01*
X6617024Y-10599643D01*
X6655119Y-10599643D01*
X6674167Y-10609167D01*
X6750357Y-10809167D02*
X6759881Y-10799643D01*
X6778928Y-10771071D01*
X6788452Y-10752024D01*
X6797976Y-10723452D01*
X6807500Y-10675833D01*
X6807500Y-10637738D01*
X6797976Y-10590119D01*
X6788452Y-10561548D01*
X6778928Y-10542500D01*
X6759881Y-10513929D01*
X6750357Y-10504405D01*
X-2500Y-10906500D02*
G75*
G03*
X-2500Y-10906500I-100000J0D01*
G01*
X245595Y-10816024D02*
X255119Y-10806500D01*
X274167Y-10796976D01*
X321786Y-10796976D01*
X340833Y-10806500D01*
X350357Y-10816024D01*
X359881Y-10835071D01*
X359881Y-10854119D01*
X350357Y-10882690D01*
X236071Y-10996976D01*
X359881Y-10996976D01*
X445595Y-10977929D02*
X455119Y-10987452D01*
X445595Y-10996976D01*
X436071Y-10987452D01*
X445595Y-10977929D01*
X445595Y-10996976D01*
X531310Y-10816024D02*
X540833Y-10806500D01*
X559881Y-10796976D01*
X607500Y-10796976D01*
X626548Y-10806500D01*
X636071Y-10816024D01*
X645595Y-10835071D01*
X645595Y-10854119D01*
X636071Y-10882690D01*
X521786Y-10996976D01*
X645595Y-10996976D01*
X769405Y-10796976D02*
X788452Y-10796976D01*
X807500Y-10806500D01*
X817024Y-10816024D01*
X826548Y-10835071D01*
X836071Y-10873167D01*
X836071Y-10920786D01*
X826548Y-10958881D01*
X817024Y-10977929D01*
X807500Y-10987452D01*
X788452Y-10996976D01*
X769405Y-10996976D01*
X750357Y-10987452D01*
X740833Y-10977929D01*
X731309Y-10958881D01*
X721786Y-10920786D01*
X721786Y-10873167D01*
X731309Y-10835071D01*
X740833Y-10816024D01*
X750357Y-10806500D01*
X769405Y-10796976D01*
X959881Y-10796976D02*
X978928Y-10796976D01*
X997976Y-10806500D01*
X1007500Y-10816024D01*
X1017024Y-10835071D01*
X1026548Y-10873167D01*
X1026548Y-10920786D01*
X1017024Y-10958881D01*
X1007500Y-10977929D01*
X997976Y-10987452D01*
X978928Y-10996976D01*
X959881Y-10996976D01*
X940833Y-10987452D01*
X931309Y-10977929D01*
X921786Y-10958881D01*
X912262Y-10920786D01*
X912262Y-10873167D01*
X921786Y-10835071D01*
X931309Y-10816024D01*
X940833Y-10806500D01*
X959881Y-10796976D01*
X1112262Y-10996976D02*
X1112262Y-10863643D01*
X1112262Y-10882690D02*
X1121786Y-10873167D01*
X1140833Y-10863643D01*
X1169405Y-10863643D01*
X1188452Y-10873167D01*
X1197976Y-10892214D01*
X1197976Y-10996976D01*
X1197976Y-10892214D02*
X1207500Y-10873167D01*
X1226548Y-10863643D01*
X1255119Y-10863643D01*
X1274167Y-10873167D01*
X1283690Y-10892214D01*
X1283690Y-10996976D01*
X1378929Y-10996976D02*
X1378929Y-10863643D01*
X1378929Y-10882690D02*
X1388452Y-10873167D01*
X1407500Y-10863643D01*
X1436071Y-10863643D01*
X1455119Y-10873167D01*
X1464643Y-10892214D01*
X1464643Y-10996976D01*
X1464643Y-10892214D02*
X1474167Y-10873167D01*
X1493214Y-10863643D01*
X1521786Y-10863643D01*
X1540833Y-10873167D01*
X1550357Y-10892214D01*
X1550357Y-10996976D01*
X1940833Y-10787452D02*
X1769405Y-11044595D01*
X2197976Y-10796976D02*
X2217024Y-10796976D01*
X2236071Y-10806500D01*
X2245595Y-10816024D01*
X2255119Y-10835071D01*
X2264643Y-10873167D01*
X2264643Y-10920786D01*
X2255119Y-10958881D01*
X2245595Y-10977929D01*
X2236071Y-10987452D01*
X2217024Y-10996976D01*
X2197976Y-10996976D01*
X2178929Y-10987452D01*
X2169405Y-10977929D01*
X2159881Y-10958881D01*
X2150357Y-10920786D01*
X2150357Y-10873167D01*
X2159881Y-10835071D01*
X2169405Y-10816024D01*
X2178929Y-10806500D01*
X2197976Y-10796976D01*
X2350357Y-10977929D02*
X2359881Y-10987452D01*
X2350357Y-10996976D01*
X2340833Y-10987452D01*
X2350357Y-10977929D01*
X2350357Y-10996976D01*
X2483690Y-10796976D02*
X2502738Y-10796976D01*
X2521786Y-10806500D01*
X2531310Y-10816024D01*
X2540833Y-10835071D01*
X2550357Y-10873167D01*
X2550357Y-10920786D01*
X2540833Y-10958881D01*
X2531310Y-10977929D01*
X2521786Y-10987452D01*
X2502738Y-10996976D01*
X2483690Y-10996976D01*
X2464643Y-10987452D01*
X2455119Y-10977929D01*
X2445595Y-10958881D01*
X2436071Y-10920786D01*
X2436071Y-10873167D01*
X2445595Y-10835071D01*
X2455119Y-10816024D01*
X2464643Y-10806500D01*
X2483690Y-10796976D01*
X2664643Y-10882690D02*
X2645595Y-10873167D01*
X2636071Y-10863643D01*
X2626548Y-10844595D01*
X2626548Y-10835071D01*
X2636071Y-10816024D01*
X2645595Y-10806500D01*
X2664643Y-10796976D01*
X2702738Y-10796976D01*
X2721786Y-10806500D01*
X2731310Y-10816024D01*
X2740833Y-10835071D01*
X2740833Y-10844595D01*
X2731310Y-10863643D01*
X2721786Y-10873167D01*
X2702738Y-10882690D01*
X2664643Y-10882690D01*
X2645595Y-10892214D01*
X2636071Y-10901738D01*
X2626548Y-10920786D01*
X2626548Y-10958881D01*
X2636071Y-10977929D01*
X2645595Y-10987452D01*
X2664643Y-10996976D01*
X2702738Y-10996976D01*
X2721786Y-10987452D01*
X2731310Y-10977929D01*
X2740833Y-10958881D01*
X2740833Y-10920786D01*
X2731310Y-10901738D01*
X2721786Y-10892214D01*
X2702738Y-10882690D01*
X2912262Y-10796976D02*
X2874167Y-10796976D01*
X2855119Y-10806500D01*
X2845595Y-10816024D01*
X2826548Y-10844595D01*
X2817024Y-10882690D01*
X2817024Y-10958881D01*
X2826548Y-10977929D01*
X2836071Y-10987452D01*
X2855119Y-10996976D01*
X2893214Y-10996976D01*
X2912262Y-10987452D01*
X2921786Y-10977929D01*
X2931309Y-10958881D01*
X2931309Y-10911262D01*
X2921786Y-10892214D01*
X2912262Y-10882690D01*
X2893214Y-10873167D01*
X2855119Y-10873167D01*
X2836071Y-10882690D01*
X2826548Y-10892214D01*
X2817024Y-10911262D01*
X3102738Y-10796976D02*
X3064643Y-10796976D01*
X3045595Y-10806500D01*
X3036071Y-10816024D01*
X3017024Y-10844595D01*
X3007500Y-10882690D01*
X3007500Y-10958881D01*
X3017024Y-10977929D01*
X3026548Y-10987452D01*
X3045595Y-10996976D01*
X3083690Y-10996976D01*
X3102738Y-10987452D01*
X3112262Y-10977929D01*
X3121786Y-10958881D01*
X3121786Y-10911262D01*
X3112262Y-10892214D01*
X3102738Y-10882690D01*
X3083690Y-10873167D01*
X3045595Y-10873167D01*
X3026548Y-10882690D01*
X3017024Y-10892214D01*
X3007500Y-10911262D01*
X3197976Y-10796976D02*
X3197976Y-10835071D01*
X3274167Y-10796976D02*
X3274167Y-10835071D01*
X3569405Y-11073167D02*
X3559881Y-11063643D01*
X3540833Y-11035071D01*
X3531309Y-11016024D01*
X3521786Y-10987452D01*
X3512262Y-10939833D01*
X3512262Y-10901738D01*
X3521786Y-10854119D01*
X3531309Y-10825548D01*
X3540833Y-10806500D01*
X3559881Y-10777929D01*
X3569405Y-10768405D01*
X3750357Y-10996976D02*
X3636071Y-10996976D01*
X3693214Y-10996976D02*
X3693214Y-10796976D01*
X3674167Y-10825548D01*
X3655119Y-10844595D01*
X3636071Y-10854119D01*
X3988452Y-10996976D02*
X3988452Y-10796976D01*
X4074167Y-10996976D02*
X4074167Y-10892214D01*
X4064643Y-10873167D01*
X4045595Y-10863643D01*
X4017024Y-10863643D01*
X3997976Y-10873167D01*
X3988452Y-10882690D01*
X4197976Y-10996976D02*
X4178928Y-10987452D01*
X4169405Y-10977929D01*
X4159881Y-10958881D01*
X4159881Y-10901738D01*
X4169405Y-10882690D01*
X4178928Y-10873167D01*
X4197976Y-10863643D01*
X4226548Y-10863643D01*
X4245595Y-10873167D01*
X4255119Y-10882690D01*
X4264643Y-10901738D01*
X4264643Y-10958881D01*
X4255119Y-10977929D01*
X4245595Y-10987452D01*
X4226548Y-10996976D01*
X4197976Y-10996976D01*
X4378929Y-10996976D02*
X4359881Y-10987452D01*
X4350357Y-10968405D01*
X4350357Y-10796976D01*
X4531310Y-10987452D02*
X4512262Y-10996976D01*
X4474167Y-10996976D01*
X4455119Y-10987452D01*
X4445595Y-10968405D01*
X4445595Y-10892214D01*
X4455119Y-10873167D01*
X4474167Y-10863643D01*
X4512262Y-10863643D01*
X4531310Y-10873167D01*
X4540833Y-10892214D01*
X4540833Y-10911262D01*
X4445595Y-10930310D01*
X4607500Y-11073167D02*
X4617024Y-11063643D01*
X4636071Y-11035071D01*
X4645595Y-11016024D01*
X4655119Y-10987452D01*
X4664643Y-10939833D01*
X4664643Y-10901738D01*
X4655119Y-10854119D01*
X4645595Y-10825548D01*
X4636071Y-10806500D01*
X4617024Y-10777929D01*
X4607500Y-10768405D01*
X4969405Y-11073167D02*
X4959881Y-11063643D01*
X4940833Y-11035071D01*
X4931310Y-11016024D01*
X4921786Y-10987452D01*
X4912262Y-10939833D01*
X4912262Y-10901738D01*
X4921786Y-10854119D01*
X4931310Y-10825548D01*
X4940833Y-10806500D01*
X4959881Y-10777929D01*
X4969405Y-10768405D01*
X5045595Y-10863643D02*
X5045595Y-10996976D01*
X5045595Y-10882690D02*
X5055119Y-10873167D01*
X5074167Y-10863643D01*
X5102738Y-10863643D01*
X5121786Y-10873167D01*
X5131310Y-10892214D01*
X5131310Y-10996976D01*
X5255119Y-10996976D02*
X5236071Y-10987452D01*
X5226548Y-10977929D01*
X5217024Y-10958881D01*
X5217024Y-10901738D01*
X5226548Y-10882690D01*
X5236071Y-10873167D01*
X5255119Y-10863643D01*
X5283690Y-10863643D01*
X5302738Y-10873167D01*
X5312262Y-10882690D01*
X5321786Y-10901738D01*
X5321786Y-10958881D01*
X5312262Y-10977929D01*
X5302738Y-10987452D01*
X5283690Y-10996976D01*
X5255119Y-10996976D01*
X5378929Y-10863643D02*
X5455119Y-10863643D01*
X5407500Y-10796976D02*
X5407500Y-10968405D01*
X5417024Y-10987452D01*
X5436071Y-10996976D01*
X5455119Y-10996976D01*
X5674167Y-10863643D02*
X5674167Y-11063643D01*
X5674167Y-10873167D02*
X5693214Y-10863643D01*
X5731309Y-10863643D01*
X5750357Y-10873167D01*
X5759881Y-10882690D01*
X5769405Y-10901738D01*
X5769405Y-10958881D01*
X5759881Y-10977929D01*
X5750357Y-10987452D01*
X5731309Y-10996976D01*
X5693214Y-10996976D01*
X5674167Y-10987452D01*
X5883690Y-10996976D02*
X5864643Y-10987452D01*
X5855119Y-10968405D01*
X5855119Y-10796976D01*
X6045595Y-10996976D02*
X6045595Y-10892214D01*
X6036071Y-10873167D01*
X6017024Y-10863643D01*
X5978928Y-10863643D01*
X5959881Y-10873167D01*
X6045595Y-10987452D02*
X6026548Y-10996976D01*
X5978928Y-10996976D01*
X5959881Y-10987452D01*
X5950357Y-10968405D01*
X5950357Y-10949357D01*
X5959881Y-10930310D01*
X5978928Y-10920786D01*
X6026548Y-10920786D01*
X6045595Y-10911262D01*
X6112262Y-10863643D02*
X6188452Y-10863643D01*
X6140833Y-10796976D02*
X6140833Y-10968405D01*
X6150357Y-10987452D01*
X6169405Y-10996976D01*
X6188452Y-10996976D01*
X6331309Y-10987452D02*
X6312262Y-10996976D01*
X6274167Y-10996976D01*
X6255119Y-10987452D01*
X6245595Y-10968405D01*
X6245595Y-10892214D01*
X6255119Y-10873167D01*
X6274167Y-10863643D01*
X6312262Y-10863643D01*
X6331309Y-10873167D01*
X6340833Y-10892214D01*
X6340833Y-10911262D01*
X6245595Y-10930310D01*
X6512262Y-10996976D02*
X6512262Y-10796976D01*
X6512262Y-10987452D02*
X6493214Y-10996976D01*
X6455119Y-10996976D01*
X6436071Y-10987452D01*
X6426548Y-10977929D01*
X6417024Y-10958881D01*
X6417024Y-10901738D01*
X6426548Y-10882690D01*
X6436071Y-10873167D01*
X6455119Y-10863643D01*
X6493214Y-10863643D01*
X6512262Y-10873167D01*
X6588452Y-11073167D02*
X6597976Y-11063643D01*
X6617024Y-11035071D01*
X6626548Y-11016024D01*
X6636071Y-10987452D01*
X6645595Y-10939833D01*
X6645595Y-10901738D01*
X6636071Y-10854119D01*
X6626548Y-10825548D01*
X6617024Y-10806500D01*
X6597976Y-10777929D01*
X6588452Y-10768405D01*
X-102500Y-11126500D02*
X-102500Y-11326500D01*
X-202500Y-11226500D02*
X-2500Y-11226500D01*
X245595Y-11136024D02*
X255119Y-11126500D01*
X274167Y-11116976D01*
X321786Y-11116976D01*
X340833Y-11126500D01*
X350357Y-11136024D01*
X359881Y-11155071D01*
X359881Y-11174119D01*
X350357Y-11202690D01*
X236071Y-11316976D01*
X359881Y-11316976D01*
X445595Y-11297928D02*
X455119Y-11307452D01*
X445595Y-11316976D01*
X436071Y-11307452D01*
X445595Y-11297928D01*
X445595Y-11316976D01*
X521786Y-11116976D02*
X655119Y-11116976D01*
X569405Y-11316976D01*
X769405Y-11116976D02*
X788452Y-11116976D01*
X807500Y-11126500D01*
X817024Y-11136024D01*
X826548Y-11155071D01*
X836071Y-11193167D01*
X836071Y-11240786D01*
X826548Y-11278881D01*
X817024Y-11297928D01*
X807500Y-11307452D01*
X788452Y-11316976D01*
X769405Y-11316976D01*
X750357Y-11307452D01*
X740833Y-11297928D01*
X731309Y-11278881D01*
X721786Y-11240786D01*
X721786Y-11193167D01*
X731309Y-11155071D01*
X740833Y-11136024D01*
X750357Y-11126500D01*
X769405Y-11116976D01*
X959881Y-11116976D02*
X978928Y-11116976D01*
X997976Y-11126500D01*
X1007500Y-11136024D01*
X1017024Y-11155071D01*
X1026548Y-11193167D01*
X1026548Y-11240786D01*
X1017024Y-11278881D01*
X1007500Y-11297928D01*
X997976Y-11307452D01*
X978928Y-11316976D01*
X959881Y-11316976D01*
X940833Y-11307452D01*
X931309Y-11297928D01*
X921786Y-11278881D01*
X912262Y-11240786D01*
X912262Y-11193167D01*
X921786Y-11155071D01*
X931309Y-11136024D01*
X940833Y-11126500D01*
X959881Y-11116976D01*
X1112262Y-11316976D02*
X1112262Y-11183643D01*
X1112262Y-11202690D02*
X1121786Y-11193167D01*
X1140833Y-11183643D01*
X1169405Y-11183643D01*
X1188452Y-11193167D01*
X1197976Y-11212214D01*
X1197976Y-11316976D01*
X1197976Y-11212214D02*
X1207500Y-11193167D01*
X1226548Y-11183643D01*
X1255119Y-11183643D01*
X1274167Y-11193167D01*
X1283690Y-11212214D01*
X1283690Y-11316976D01*
X1378929Y-11316976D02*
X1378929Y-11183643D01*
X1378929Y-11202690D02*
X1388452Y-11193167D01*
X1407500Y-11183643D01*
X1436071Y-11183643D01*
X1455119Y-11193167D01*
X1464643Y-11212214D01*
X1464643Y-11316976D01*
X1464643Y-11212214D02*
X1474167Y-11193167D01*
X1493214Y-11183643D01*
X1521786Y-11183643D01*
X1540833Y-11193167D01*
X1550357Y-11212214D01*
X1550357Y-11316976D01*
X1940833Y-11107452D02*
X1769405Y-11364595D01*
X2197976Y-11116976D02*
X2217024Y-11116976D01*
X2236071Y-11126500D01*
X2245595Y-11136024D01*
X2255119Y-11155071D01*
X2264643Y-11193167D01*
X2264643Y-11240786D01*
X2255119Y-11278881D01*
X2245595Y-11297928D01*
X2236071Y-11307452D01*
X2217024Y-11316976D01*
X2197976Y-11316976D01*
X2178929Y-11307452D01*
X2169405Y-11297928D01*
X2159881Y-11278881D01*
X2150357Y-11240786D01*
X2150357Y-11193167D01*
X2159881Y-11155071D01*
X2169405Y-11136024D01*
X2178929Y-11126500D01*
X2197976Y-11116976D01*
X2350357Y-11297928D02*
X2359881Y-11307452D01*
X2350357Y-11316976D01*
X2340833Y-11307452D01*
X2350357Y-11297928D01*
X2350357Y-11316976D01*
X2550357Y-11316976D02*
X2436071Y-11316976D01*
X2493214Y-11316976D02*
X2493214Y-11116976D01*
X2474167Y-11145548D01*
X2455119Y-11164595D01*
X2436071Y-11174119D01*
X2674167Y-11116976D02*
X2693214Y-11116976D01*
X2712262Y-11126500D01*
X2721786Y-11136024D01*
X2731310Y-11155071D01*
X2740833Y-11193167D01*
X2740833Y-11240786D01*
X2731310Y-11278881D01*
X2721786Y-11297928D01*
X2712262Y-11307452D01*
X2693214Y-11316976D01*
X2674167Y-11316976D01*
X2655119Y-11307452D01*
X2645595Y-11297928D01*
X2636071Y-11278881D01*
X2626548Y-11240786D01*
X2626548Y-11193167D01*
X2636071Y-11155071D01*
X2645595Y-11136024D01*
X2655119Y-11126500D01*
X2674167Y-11116976D01*
X2912262Y-11116976D02*
X2874167Y-11116976D01*
X2855119Y-11126500D01*
X2845595Y-11136024D01*
X2826548Y-11164595D01*
X2817024Y-11202690D01*
X2817024Y-11278881D01*
X2826548Y-11297928D01*
X2836071Y-11307452D01*
X2855119Y-11316976D01*
X2893214Y-11316976D01*
X2912262Y-11307452D01*
X2921786Y-11297928D01*
X2931309Y-11278881D01*
X2931309Y-11231262D01*
X2921786Y-11212214D01*
X2912262Y-11202690D01*
X2893214Y-11193167D01*
X2855119Y-11193167D01*
X2836071Y-11202690D01*
X2826548Y-11212214D01*
X2817024Y-11231262D01*
X2997976Y-11116976D02*
X3121786Y-11116976D01*
X3055119Y-11193167D01*
X3083690Y-11193167D01*
X3102738Y-11202690D01*
X3112262Y-11212214D01*
X3121786Y-11231262D01*
X3121786Y-11278881D01*
X3112262Y-11297928D01*
X3102738Y-11307452D01*
X3083690Y-11316976D01*
X3026548Y-11316976D01*
X3007500Y-11307452D01*
X2997976Y-11297928D01*
X3197976Y-11116976D02*
X3197976Y-11155071D01*
X3274167Y-11116976D02*
X3274167Y-11155071D01*
X3569405Y-11393167D02*
X3559881Y-11383643D01*
X3540833Y-11355071D01*
X3531309Y-11336024D01*
X3521786Y-11307452D01*
X3512262Y-11259833D01*
X3512262Y-11221738D01*
X3521786Y-11174119D01*
X3531309Y-11145548D01*
X3540833Y-11126500D01*
X3559881Y-11097929D01*
X3569405Y-11088405D01*
X3626548Y-11116976D02*
X3750357Y-11116976D01*
X3683690Y-11193167D01*
X3712262Y-11193167D01*
X3731309Y-11202690D01*
X3740833Y-11212214D01*
X3750357Y-11231262D01*
X3750357Y-11278881D01*
X3740833Y-11297928D01*
X3731309Y-11307452D01*
X3712262Y-11316976D01*
X3655119Y-11316976D01*
X3636071Y-11307452D01*
X3626548Y-11297928D01*
X3988452Y-11316976D02*
X3988452Y-11116976D01*
X4074167Y-11316976D02*
X4074167Y-11212214D01*
X4064643Y-11193167D01*
X4045595Y-11183643D01*
X4017024Y-11183643D01*
X3997976Y-11193167D01*
X3988452Y-11202690D01*
X4197976Y-11316976D02*
X4178928Y-11307452D01*
X4169405Y-11297928D01*
X4159881Y-11278881D01*
X4159881Y-11221738D01*
X4169405Y-11202690D01*
X4178928Y-11193167D01*
X4197976Y-11183643D01*
X4226548Y-11183643D01*
X4245595Y-11193167D01*
X4255119Y-11202690D01*
X4264643Y-11221738D01*
X4264643Y-11278881D01*
X4255119Y-11297928D01*
X4245595Y-11307452D01*
X4226548Y-11316976D01*
X4197976Y-11316976D01*
X4378929Y-11316976D02*
X4359881Y-11307452D01*
X4350357Y-11288405D01*
X4350357Y-11116976D01*
X4531310Y-11307452D02*
X4512262Y-11316976D01*
X4474167Y-11316976D01*
X4455119Y-11307452D01*
X4445595Y-11288405D01*
X4445595Y-11212214D01*
X4455119Y-11193167D01*
X4474167Y-11183643D01*
X4512262Y-11183643D01*
X4531310Y-11193167D01*
X4540833Y-11212214D01*
X4540833Y-11231262D01*
X4445595Y-11250309D01*
X4617024Y-11307452D02*
X4636071Y-11316976D01*
X4674167Y-11316976D01*
X4693214Y-11307452D01*
X4702738Y-11288405D01*
X4702738Y-11278881D01*
X4693214Y-11259833D01*
X4674167Y-11250309D01*
X4645595Y-11250309D01*
X4626548Y-11240786D01*
X4617024Y-11221738D01*
X4617024Y-11212214D01*
X4626548Y-11193167D01*
X4645595Y-11183643D01*
X4674167Y-11183643D01*
X4693214Y-11193167D01*
X4769405Y-11393167D02*
X4778929Y-11383643D01*
X4797976Y-11355071D01*
X4807500Y-11336024D01*
X4817024Y-11307452D01*
X4826548Y-11259833D01*
X4826548Y-11221738D01*
X4817024Y-11174119D01*
X4807500Y-11145548D01*
X4797976Y-11126500D01*
X4778929Y-11097929D01*
X4769405Y-11088405D01*
X5131310Y-11393167D02*
X5121786Y-11383643D01*
X5102738Y-11355071D01*
X5093214Y-11336024D01*
X5083690Y-11307452D01*
X5074167Y-11259833D01*
X5074167Y-11221738D01*
X5083690Y-11174119D01*
X5093214Y-11145548D01*
X5102738Y-11126500D01*
X5121786Y-11097929D01*
X5131310Y-11088405D01*
X5207500Y-11183643D02*
X5207500Y-11316976D01*
X5207500Y-11202690D02*
X5217024Y-11193167D01*
X5236071Y-11183643D01*
X5264643Y-11183643D01*
X5283690Y-11193167D01*
X5293214Y-11212214D01*
X5293214Y-11316976D01*
X5417024Y-11316976D02*
X5397976Y-11307452D01*
X5388452Y-11297928D01*
X5378929Y-11278881D01*
X5378929Y-11221738D01*
X5388452Y-11202690D01*
X5397976Y-11193167D01*
X5417024Y-11183643D01*
X5445595Y-11183643D01*
X5464643Y-11193167D01*
X5474167Y-11202690D01*
X5483690Y-11221738D01*
X5483690Y-11278881D01*
X5474167Y-11297928D01*
X5464643Y-11307452D01*
X5445595Y-11316976D01*
X5417024Y-11316976D01*
X5540833Y-11183643D02*
X5617024Y-11183643D01*
X5569405Y-11116976D02*
X5569405Y-11288405D01*
X5578929Y-11307452D01*
X5597976Y-11316976D01*
X5617024Y-11316976D01*
X5836071Y-11183643D02*
X5836071Y-11383643D01*
X5836071Y-11193167D02*
X5855119Y-11183643D01*
X5893214Y-11183643D01*
X5912262Y-11193167D01*
X5921786Y-11202690D01*
X5931309Y-11221738D01*
X5931309Y-11278881D01*
X5921786Y-11297928D01*
X5912262Y-11307452D01*
X5893214Y-11316976D01*
X5855119Y-11316976D01*
X5836071Y-11307452D01*
X6045595Y-11316976D02*
X6026548Y-11307452D01*
X6017024Y-11288405D01*
X6017024Y-11116976D01*
X6207500Y-11316976D02*
X6207500Y-11212214D01*
X6197976Y-11193167D01*
X6178928Y-11183643D01*
X6140833Y-11183643D01*
X6121786Y-11193167D01*
X6207500Y-11307452D02*
X6188452Y-11316976D01*
X6140833Y-11316976D01*
X6121786Y-11307452D01*
X6112262Y-11288405D01*
X6112262Y-11269357D01*
X6121786Y-11250309D01*
X6140833Y-11240786D01*
X6188452Y-11240786D01*
X6207500Y-11231262D01*
X6274167Y-11183643D02*
X6350357Y-11183643D01*
X6302738Y-11116976D02*
X6302738Y-11288405D01*
X6312262Y-11307452D01*
X6331309Y-11316976D01*
X6350357Y-11316976D01*
X6493214Y-11307452D02*
X6474167Y-11316976D01*
X6436071Y-11316976D01*
X6417024Y-11307452D01*
X6407500Y-11288405D01*
X6407500Y-11212214D01*
X6417024Y-11193167D01*
X6436071Y-11183643D01*
X6474167Y-11183643D01*
X6493214Y-11193167D01*
X6502738Y-11212214D01*
X6502738Y-11231262D01*
X6407500Y-11250309D01*
X6674167Y-11316976D02*
X6674167Y-11116976D01*
X6674167Y-11307452D02*
X6655119Y-11316976D01*
X6617024Y-11316976D01*
X6597976Y-11307452D01*
X6588452Y-11297928D01*
X6578928Y-11278881D01*
X6578928Y-11221738D01*
X6588452Y-11202690D01*
X6597976Y-11193167D01*
X6617024Y-11183643D01*
X6655119Y-11183643D01*
X6674167Y-11193167D01*
X6750357Y-11393167D02*
X6759881Y-11383643D01*
X6778928Y-11355071D01*
X6788452Y-11336024D01*
X6797976Y-11307452D01*
X6807500Y-11259833D01*
X6807500Y-11221738D01*
X6797976Y-11174119D01*
X6788452Y-11145548D01*
X6778928Y-11126500D01*
X6759881Y-11097929D01*
X6750357Y-11088405D01*
X-31789Y-11617211D02*
X-31789Y-11475789D01*
X-173211Y-11475789D01*
X-173211Y-11617211D01*
X-31789Y-11617211D01*
X236071Y-11436976D02*
X359881Y-11436976D01*
X293214Y-11513167D01*
X321786Y-11513167D01*
X340833Y-11522690D01*
X350357Y-11532214D01*
X359881Y-11551262D01*
X359881Y-11598881D01*
X350357Y-11617928D01*
X340833Y-11627452D01*
X321786Y-11636976D01*
X264643Y-11636976D01*
X245595Y-11627452D01*
X236071Y-11617928D01*
X445595Y-11617928D02*
X455119Y-11627452D01*
X445595Y-11636976D01*
X436071Y-11627452D01*
X445595Y-11617928D01*
X445595Y-11636976D01*
X531310Y-11456024D02*
X540833Y-11446500D01*
X559881Y-11436976D01*
X607500Y-11436976D01*
X626548Y-11446500D01*
X636071Y-11456024D01*
X645595Y-11475071D01*
X645595Y-11494119D01*
X636071Y-11522690D01*
X521786Y-11636976D01*
X645595Y-11636976D01*
X769405Y-11436976D02*
X788452Y-11436976D01*
X807500Y-11446500D01*
X817024Y-11456024D01*
X826548Y-11475071D01*
X836071Y-11513167D01*
X836071Y-11560786D01*
X826548Y-11598881D01*
X817024Y-11617928D01*
X807500Y-11627452D01*
X788452Y-11636976D01*
X769405Y-11636976D01*
X750357Y-11627452D01*
X740833Y-11617928D01*
X731309Y-11598881D01*
X721786Y-11560786D01*
X721786Y-11513167D01*
X731309Y-11475071D01*
X740833Y-11456024D01*
X750357Y-11446500D01*
X769405Y-11436976D01*
X959881Y-11436976D02*
X978928Y-11436976D01*
X997976Y-11446500D01*
X1007500Y-11456024D01*
X1017024Y-11475071D01*
X1026548Y-11513167D01*
X1026548Y-11560786D01*
X1017024Y-11598881D01*
X1007500Y-11617928D01*
X997976Y-11627452D01*
X978928Y-11636976D01*
X959881Y-11636976D01*
X940833Y-11627452D01*
X931309Y-11617928D01*
X921786Y-11598881D01*
X912262Y-11560786D01*
X912262Y-11513167D01*
X921786Y-11475071D01*
X931309Y-11456024D01*
X940833Y-11446500D01*
X959881Y-11436976D01*
X1112262Y-11636976D02*
X1112262Y-11503643D01*
X1112262Y-11522690D02*
X1121786Y-11513167D01*
X1140833Y-11503643D01*
X1169405Y-11503643D01*
X1188452Y-11513167D01*
X1197976Y-11532214D01*
X1197976Y-11636976D01*
X1197976Y-11532214D02*
X1207500Y-11513167D01*
X1226548Y-11503643D01*
X1255119Y-11503643D01*
X1274167Y-11513167D01*
X1283690Y-11532214D01*
X1283690Y-11636976D01*
X1378929Y-11636976D02*
X1378929Y-11503643D01*
X1378929Y-11522690D02*
X1388452Y-11513167D01*
X1407500Y-11503643D01*
X1436071Y-11503643D01*
X1455119Y-11513167D01*
X1464643Y-11532214D01*
X1464643Y-11636976D01*
X1464643Y-11532214D02*
X1474167Y-11513167D01*
X1493214Y-11503643D01*
X1521786Y-11503643D01*
X1540833Y-11513167D01*
X1550357Y-11532214D01*
X1550357Y-11636976D01*
X1940833Y-11427452D02*
X1769405Y-11684595D01*
X2197976Y-11436976D02*
X2217024Y-11436976D01*
X2236071Y-11446500D01*
X2245595Y-11456024D01*
X2255119Y-11475071D01*
X2264643Y-11513167D01*
X2264643Y-11560786D01*
X2255119Y-11598881D01*
X2245595Y-11617928D01*
X2236071Y-11627452D01*
X2217024Y-11636976D01*
X2197976Y-11636976D01*
X2178929Y-11627452D01*
X2169405Y-11617928D01*
X2159881Y-11598881D01*
X2150357Y-11560786D01*
X2150357Y-11513167D01*
X2159881Y-11475071D01*
X2169405Y-11456024D01*
X2178929Y-11446500D01*
X2197976Y-11436976D01*
X2350357Y-11617928D02*
X2359881Y-11627452D01*
X2350357Y-11636976D01*
X2340833Y-11627452D01*
X2350357Y-11617928D01*
X2350357Y-11636976D01*
X2550357Y-11636976D02*
X2436071Y-11636976D01*
X2493214Y-11636976D02*
X2493214Y-11436976D01*
X2474167Y-11465548D01*
X2455119Y-11484595D01*
X2436071Y-11494119D01*
X2626548Y-11456024D02*
X2636071Y-11446500D01*
X2655119Y-11436976D01*
X2702738Y-11436976D01*
X2721786Y-11446500D01*
X2731310Y-11456024D01*
X2740833Y-11475071D01*
X2740833Y-11494119D01*
X2731310Y-11522690D01*
X2617024Y-11636976D01*
X2740833Y-11636976D01*
X2912262Y-11436976D02*
X2874167Y-11436976D01*
X2855119Y-11446500D01*
X2845595Y-11456024D01*
X2826548Y-11484595D01*
X2817024Y-11522690D01*
X2817024Y-11598881D01*
X2826548Y-11617928D01*
X2836071Y-11627452D01*
X2855119Y-11636976D01*
X2893214Y-11636976D01*
X2912262Y-11627452D01*
X2921786Y-11617928D01*
X2931309Y-11598881D01*
X2931309Y-11551262D01*
X2921786Y-11532214D01*
X2912262Y-11522690D01*
X2893214Y-11513167D01*
X2855119Y-11513167D01*
X2836071Y-11522690D01*
X2826548Y-11532214D01*
X2817024Y-11551262D01*
X3055119Y-11436976D02*
X3074167Y-11436976D01*
X3093214Y-11446500D01*
X3102738Y-11456024D01*
X3112262Y-11475071D01*
X3121786Y-11513167D01*
X3121786Y-11560786D01*
X3112262Y-11598881D01*
X3102738Y-11617928D01*
X3093214Y-11627452D01*
X3074167Y-11636976D01*
X3055119Y-11636976D01*
X3036071Y-11627452D01*
X3026548Y-11617928D01*
X3017024Y-11598881D01*
X3007500Y-11560786D01*
X3007500Y-11513167D01*
X3017024Y-11475071D01*
X3026548Y-11456024D01*
X3036071Y-11446500D01*
X3055119Y-11436976D01*
X3197976Y-11436976D02*
X3197976Y-11475071D01*
X3274167Y-11436976D02*
X3274167Y-11475071D01*
X3569405Y-11713167D02*
X3559881Y-11703643D01*
X3540833Y-11675071D01*
X3531309Y-11656024D01*
X3521786Y-11627452D01*
X3512262Y-11579833D01*
X3512262Y-11541738D01*
X3521786Y-11494119D01*
X3531309Y-11465548D01*
X3540833Y-11446500D01*
X3559881Y-11417928D01*
X3569405Y-11408405D01*
X3750357Y-11636976D02*
X3636071Y-11636976D01*
X3693214Y-11636976D02*
X3693214Y-11436976D01*
X3674167Y-11465548D01*
X3655119Y-11484595D01*
X3636071Y-11494119D01*
X3921786Y-11503643D02*
X3921786Y-11636976D01*
X3874167Y-11427452D02*
X3826548Y-11570309D01*
X3950357Y-11570309D01*
X4178928Y-11636976D02*
X4178928Y-11436976D01*
X4264643Y-11636976D02*
X4264643Y-11532214D01*
X4255119Y-11513167D01*
X4236071Y-11503643D01*
X4207500Y-11503643D01*
X4188452Y-11513167D01*
X4178928Y-11522690D01*
X4388452Y-11636976D02*
X4369405Y-11627452D01*
X4359881Y-11617928D01*
X4350357Y-11598881D01*
X4350357Y-11541738D01*
X4359881Y-11522690D01*
X4369405Y-11513167D01*
X4388452Y-11503643D01*
X4417024Y-11503643D01*
X4436071Y-11513167D01*
X4445595Y-11522690D01*
X4455119Y-11541738D01*
X4455119Y-11598881D01*
X4445595Y-11617928D01*
X4436071Y-11627452D01*
X4417024Y-11636976D01*
X4388452Y-11636976D01*
X4569405Y-11636976D02*
X4550357Y-11627452D01*
X4540833Y-11608405D01*
X4540833Y-11436976D01*
X4721786Y-11627452D02*
X4702738Y-11636976D01*
X4664643Y-11636976D01*
X4645595Y-11627452D01*
X4636071Y-11608405D01*
X4636071Y-11532214D01*
X4645595Y-11513167D01*
X4664643Y-11503643D01*
X4702738Y-11503643D01*
X4721786Y-11513167D01*
X4731310Y-11532214D01*
X4731310Y-11551262D01*
X4636071Y-11570309D01*
X4807500Y-11627452D02*
X4826548Y-11636976D01*
X4864643Y-11636976D01*
X4883690Y-11627452D01*
X4893214Y-11608405D01*
X4893214Y-11598881D01*
X4883690Y-11579833D01*
X4864643Y-11570309D01*
X4836071Y-11570309D01*
X4817024Y-11560786D01*
X4807500Y-11541738D01*
X4807500Y-11532214D01*
X4817024Y-11513167D01*
X4836071Y-11503643D01*
X4864643Y-11503643D01*
X4883690Y-11513167D01*
X4959881Y-11713167D02*
X4969405Y-11703643D01*
X4988452Y-11675071D01*
X4997976Y-11656024D01*
X5007500Y-11627452D01*
X5017024Y-11579833D01*
X5017024Y-11541738D01*
X5007500Y-11494119D01*
X4997976Y-11465548D01*
X4988452Y-11446500D01*
X4969405Y-11417928D01*
X4959881Y-11408405D01*
X5321786Y-11713167D02*
X5312262Y-11703643D01*
X5293214Y-11675071D01*
X5283690Y-11656024D01*
X5274167Y-11627452D01*
X5264643Y-11579833D01*
X5264643Y-11541738D01*
X5274167Y-11494119D01*
X5283690Y-11465548D01*
X5293214Y-11446500D01*
X5312262Y-11417928D01*
X5321786Y-11408405D01*
X5397976Y-11503643D02*
X5397976Y-11636976D01*
X5397976Y-11522690D02*
X5407500Y-11513167D01*
X5426548Y-11503643D01*
X5455119Y-11503643D01*
X5474167Y-11513167D01*
X5483690Y-11532214D01*
X5483690Y-11636976D01*
X5607500Y-11636976D02*
X5588452Y-11627452D01*
X5578929Y-11617928D01*
X5569405Y-11598881D01*
X5569405Y-11541738D01*
X5578929Y-11522690D01*
X5588452Y-11513167D01*
X5607500Y-11503643D01*
X5636071Y-11503643D01*
X5655119Y-11513167D01*
X5664643Y-11522690D01*
X5674167Y-11541738D01*
X5674167Y-11598881D01*
X5664643Y-11617928D01*
X5655119Y-11627452D01*
X5636071Y-11636976D01*
X5607500Y-11636976D01*
X5731309Y-11503643D02*
X5807500Y-11503643D01*
X5759881Y-11436976D02*
X5759881Y-11608405D01*
X5769405Y-11627452D01*
X5788452Y-11636976D01*
X5807500Y-11636976D01*
X6026548Y-11503643D02*
X6026548Y-11703643D01*
X6026548Y-11513167D02*
X6045595Y-11503643D01*
X6083690Y-11503643D01*
X6102738Y-11513167D01*
X6112262Y-11522690D01*
X6121786Y-11541738D01*
X6121786Y-11598881D01*
X6112262Y-11617928D01*
X6102738Y-11627452D01*
X6083690Y-11636976D01*
X6045595Y-11636976D01*
X6026548Y-11627452D01*
X6236071Y-11636976D02*
X6217024Y-11627452D01*
X6207500Y-11608405D01*
X6207500Y-11436976D01*
X6397976Y-11636976D02*
X6397976Y-11532214D01*
X6388452Y-11513167D01*
X6369405Y-11503643D01*
X6331309Y-11503643D01*
X6312262Y-11513167D01*
X6397976Y-11627452D02*
X6378928Y-11636976D01*
X6331309Y-11636976D01*
X6312262Y-11627452D01*
X6302738Y-11608405D01*
X6302738Y-11589357D01*
X6312262Y-11570309D01*
X6331309Y-11560786D01*
X6378928Y-11560786D01*
X6397976Y-11551262D01*
X6464643Y-11503643D02*
X6540833Y-11503643D01*
X6493214Y-11436976D02*
X6493214Y-11608405D01*
X6502738Y-11627452D01*
X6521786Y-11636976D01*
X6540833Y-11636976D01*
X6683690Y-11627452D02*
X6664643Y-11636976D01*
X6626548Y-11636976D01*
X6607500Y-11627452D01*
X6597976Y-11608405D01*
X6597976Y-11532214D01*
X6607500Y-11513167D01*
X6626548Y-11503643D01*
X6664643Y-11503643D01*
X6683690Y-11513167D01*
X6693214Y-11532214D01*
X6693214Y-11551262D01*
X6597976Y-11570309D01*
X6864643Y-11636976D02*
X6864643Y-11436976D01*
X6864643Y-11627452D02*
X6845595Y-11636976D01*
X6807500Y-11636976D01*
X6788452Y-11627452D01*
X6778928Y-11617928D01*
X6769405Y-11598881D01*
X6769405Y-11541738D01*
X6778928Y-11522690D01*
X6788452Y-11513167D01*
X6807500Y-11503643D01*
X6845595Y-11503643D01*
X6864643Y-11513167D01*
X6940833Y-11713167D02*
X6950357Y-11703643D01*
X6969405Y-11675071D01*
X6978928Y-11656024D01*
X6988452Y-11627452D01*
X6997976Y-11579833D01*
X6997976Y-11541738D01*
X6988452Y-11494119D01*
X6978928Y-11465548D01*
X6969405Y-11446500D01*
X6950357Y-11417928D01*
X6940833Y-11408405D01*
M02*
