M48
; DRILL file {KiCad (6.0.6)} date Wed Oct 25 22:22:23 2023
; FORMAT={-:-/ absolute / metric / decimal}
; #@! TF.CreationDate,2023-10-25T22:22:23+02:00
; #@! TF.GenerationSoftware,Kicad,Pcbnew,(6.0.6)
; #@! TF.FileFunction,NonPlated,1,6,NPTH
FMAT,2
METRIC
; #@! TA.AperFunction,NonPlated,NPTH,ComponentDrill
T1C0.610
; #@! TA.AperFunction,NonPlated,NPTH,ComponentDrill
T2C2.200
; #@! TA.AperFunction,NonPlated,NPTH,ComponentDrill
T3C2.700
; #@! TA.AperFunction,NonPlated,NPTH,ComponentDrill
T4C3.200
%
G90
G05
T1
X33.95Y-85.05
X33.95Y-91.05
X38.05Y-80.95
X38.05Y-86.95
T2
X2.312Y-53.0
T3
X28.5Y-17.0
X52.5Y-17.0
X76.5Y-17.0
T4
X10.73Y-6.65
X22.16Y-6.65
X30.555Y-32.195
X30.555Y-87.805
X34.73Y-6.65
X46.16Y-6.65
X49.855Y-32.195
X49.855Y-87.805
X58.73Y-6.55
X69.155Y-32.195
X69.155Y-87.805
X70.16Y-6.55
X88.455Y-32.195
X88.455Y-87.805
T0
M30
