G04 #@! TF.GenerationSoftware,KiCad,Pcbnew,(6.0.6)*
G04 #@! TF.CreationDate,2023-10-25T22:22:06+02:00*
G04 #@! TF.ProjectId,SHS_DCDC,5348535f-4443-4444-932e-6b696361645f,rev?*
G04 #@! TF.SameCoordinates,Original*
G04 #@! TF.FileFunction,Soldermask,Top*
G04 #@! TF.FilePolarity,Negative*
%FSLAX46Y46*%
G04 Gerber Fmt 4.6, Leading zero omitted, Abs format (unit mm)*
G04 Created by KiCad (PCBNEW (6.0.6)) date 2023-10-25 22:22:06*
%MOMM*%
%LPD*%
G01*
G04 APERTURE LIST*
G04 Aperture macros list*
%AMRoundRect*
0 Rectangle with rounded corners*
0 $1 Rounding radius*
0 $2 $3 $4 $5 $6 $7 $8 $9 X,Y pos of 4 corners*
0 Add a 4 corners polygon primitive as box body*
4,1,4,$2,$3,$4,$5,$6,$7,$8,$9,$2,$3,0*
0 Add four circle primitives for the rounded corners*
1,1,$1+$1,$2,$3*
1,1,$1+$1,$4,$5*
1,1,$1+$1,$6,$7*
1,1,$1+$1,$8,$9*
0 Add four rect primitives between the rounded corners*
20,1,$1+$1,$2,$3,$4,$5,0*
20,1,$1+$1,$4,$5,$6,$7,0*
20,1,$1+$1,$6,$7,$8,$9,0*
20,1,$1+$1,$8,$9,$2,$3,0*%
%AMFreePoly0*
4,1,6,0.600000,-0.600000,-0.600000,-0.600000,-0.600000,0.000000,0.000000,0.600000,0.600000,0.600000,0.600000,-0.600000,0.600000,-0.600000,$1*%
G04 Aperture macros list end*
%ADD10R,2.030000X3.800000*%
%ADD11C,2.700000*%
%ADD12C,2.000000*%
%ADD13RoundRect,0.200000X-0.275000X0.200000X-0.275000X-0.200000X0.275000X-0.200000X0.275000X0.200000X0*%
%ADD14RoundRect,0.070000X0.300000X-0.650000X0.300000X0.650000X-0.300000X0.650000X-0.300000X-0.650000X0*%
%ADD15RoundRect,0.225000X0.225000X0.250000X-0.225000X0.250000X-0.225000X-0.250000X0.225000X-0.250000X0*%
%ADD16RoundRect,0.250000X0.325000X1.100000X-0.325000X1.100000X-0.325000X-1.100000X0.325000X-1.100000X0*%
%ADD17RoundRect,0.140000X-0.140000X-0.170000X0.140000X-0.170000X0.140000X0.170000X-0.140000X0.170000X0*%
%ADD18R,1.060000X0.650000*%
%ADD19RoundRect,0.250000X0.362500X1.075000X-0.362500X1.075000X-0.362500X-1.075000X0.362500X-1.075000X0*%
%ADD20RoundRect,0.225000X-0.250000X0.225000X-0.250000X-0.225000X0.250000X-0.225000X0.250000X0.225000X0*%
%ADD21RoundRect,0.200000X0.200000X0.275000X-0.200000X0.275000X-0.200000X-0.275000X0.200000X-0.275000X0*%
%ADD22R,0.600000X2.000000*%
%ADD23RoundRect,0.140000X-0.170000X0.140000X-0.170000X-0.140000X0.170000X-0.140000X0.170000X0.140000X0*%
%ADD24RoundRect,0.200000X-0.200000X-0.275000X0.200000X-0.275000X0.200000X0.275000X-0.200000X0.275000X0*%
%ADD25RoundRect,0.200000X0.275000X-0.200000X0.275000X0.200000X-0.275000X0.200000X-0.275000X-0.200000X0*%
%ADD26R,1.200000X0.400000*%
%ADD27RoundRect,0.250000X-0.250000X-0.475000X0.250000X-0.475000X0.250000X0.475000X-0.250000X0.475000X0*%
%ADD28RoundRect,0.250000X-0.475000X0.250000X-0.475000X-0.250000X0.475000X-0.250000X0.475000X0.250000X0*%
%ADD29RoundRect,0.070000X-0.300000X0.650000X-0.300000X-0.650000X0.300000X-0.650000X0.300000X0.650000X0*%
%ADD30RoundRect,0.070000X-0.650000X-0.300000X0.650000X-0.300000X0.650000X0.300000X-0.650000X0.300000X0*%
%ADD31RoundRect,0.070000X0.650000X0.300000X-0.650000X0.300000X-0.650000X-0.300000X0.650000X-0.300000X0*%
%ADD32RoundRect,0.250000X-0.325000X-1.100000X0.325000X-1.100000X0.325000X1.100000X-0.325000X1.100000X0*%
%ADD33RoundRect,0.250000X-0.450000X0.262500X-0.450000X-0.262500X0.450000X-0.262500X0.450000X0.262500X0*%
%ADD34R,5.900000X1.600000*%
%ADD35R,0.800000X0.900000*%
%ADD36RoundRect,0.135000X-0.185000X0.135000X-0.185000X-0.135000X0.185000X-0.135000X0.185000X0.135000X0*%
%ADD37RoundRect,0.135000X0.135000X0.185000X-0.135000X0.185000X-0.135000X-0.185000X0.135000X-0.185000X0*%
%ADD38R,1.800000X7.700000*%
%ADD39RoundRect,0.135000X-0.135000X-0.185000X0.135000X-0.185000X0.135000X0.185000X-0.135000X0.185000X0*%
%ADD40R,0.400000X0.800000*%
%ADD41R,0.800000X0.400000*%
%ADD42R,0.800000X0.800000*%
%ADD43FreePoly0,90.000000*%
%ADD44R,1.200000X1.200000*%
%ADD45RoundRect,0.140000X0.170000X-0.140000X0.170000X0.140000X-0.170000X0.140000X-0.170000X-0.140000X0*%
%ADD46R,3.800000X2.030000*%
%ADD47RoundRect,0.135000X0.185000X-0.135000X0.185000X0.135000X-0.185000X0.135000X-0.185000X-0.135000X0*%
%ADD48RoundRect,0.250000X0.312500X0.625000X-0.312500X0.625000X-0.312500X-0.625000X0.312500X-0.625000X0*%
%ADD49R,0.900000X1.200000*%
%ADD50R,1.970000X0.600000*%
%ADD51RoundRect,0.150000X0.150000X-0.587500X0.150000X0.587500X-0.150000X0.587500X-0.150000X-0.587500X0*%
%ADD52RoundRect,0.140000X0.140000X0.170000X-0.140000X0.170000X-0.140000X-0.170000X0.140000X-0.170000X0*%
%ADD53RoundRect,0.250000X0.475000X-0.250000X0.475000X0.250000X-0.475000X0.250000X-0.475000X-0.250000X0*%
%ADD54RoundRect,0.225000X0.250000X-0.225000X0.250000X0.225000X-0.250000X0.225000X-0.250000X-0.225000X0*%
%ADD55C,0.610000*%
%ADD56RoundRect,0.250000X0.250000X0.475000X-0.250000X0.475000X-0.250000X-0.475000X0.250000X-0.475000X0*%
%ADD57R,1.200000X0.600000*%
%ADD58R,0.700000X0.600000*%
%ADD59RoundRect,0.150000X-0.150000X0.587500X-0.150000X-0.587500X0.150000X-0.587500X0.150000X0.587500X0*%
%ADD60R,1.800000X1.000000*%
%ADD61RoundRect,0.150000X-0.512500X-0.150000X0.512500X-0.150000X0.512500X0.150000X-0.512500X0.150000X0*%
%ADD62RoundRect,0.009000X0.416000X0.141000X-0.416000X0.141000X-0.416000X-0.141000X0.416000X-0.141000X0*%
%ADD63R,1.700000X2.550000*%
%ADD64R,1.300000X1.550000*%
%ADD65R,1.524000X1.524000*%
%ADD66C,1.524000*%
%ADD67C,3.500000*%
%ADD68C,2.200000*%
%ADD69O,2.000000X4.000000*%
%ADD70O,4.000000X2.000000*%
%ADD71C,2.600000*%
%ADD72R,1.000000X1.000000*%
%ADD73O,1.000000X1.000000*%
%ADD74C,3.200000*%
%ADD75R,1.500000X1.500000*%
%ADD76C,1.500000*%
%ADD77C,2.020000*%
%ADD78C,3.600000*%
G04 APERTURE END LIST*
D10*
X65900000Y-66600000D03*
D11*
X76500000Y-17000000D03*
X52500000Y-17000000D03*
X28500000Y-17000000D03*
D12*
X25000000Y-25000000D03*
X95000000Y-25000000D03*
X95000000Y-95000000D03*
D13*
X11200000Y-35175000D03*
X11200000Y-36825000D03*
D14*
X11150000Y-33050000D03*
X13050000Y-33050000D03*
X12100000Y-30950000D03*
X15550000Y-31050000D03*
X17450000Y-31050000D03*
X16500000Y-28950000D03*
D15*
X9775000Y-19000000D03*
X8225000Y-19000000D03*
D16*
X16475000Y-25000000D03*
X13525000Y-25000000D03*
X16475000Y-21000000D03*
X13525000Y-21000000D03*
D17*
X52420000Y-80800000D03*
X53380000Y-80800000D03*
D18*
X57200000Y-79900000D03*
X57200000Y-78950000D03*
X57200000Y-78000000D03*
X55000000Y-78000000D03*
X55000000Y-78950000D03*
X55000000Y-79900000D03*
D19*
X58412500Y-69950000D03*
X53787500Y-69950000D03*
D20*
X12900000Y-35225000D03*
X12900000Y-36775000D03*
D21*
X35825000Y-21000000D03*
X34175000Y-21000000D03*
D20*
X40800000Y-32225000D03*
X40800000Y-33775000D03*
D16*
X41475000Y-21000000D03*
X38525000Y-21000000D03*
X41475000Y-25000000D03*
X38525000Y-25000000D03*
D15*
X35775000Y-19000000D03*
X34225000Y-19000000D03*
X58775000Y-19000000D03*
X57225000Y-19000000D03*
D20*
X60700000Y-35225000D03*
X60700000Y-36775000D03*
D16*
X64475000Y-21000000D03*
X61525000Y-21000000D03*
X64475000Y-25000000D03*
X61525000Y-25000000D03*
D14*
X43550000Y-28050000D03*
X45450000Y-28050000D03*
X44500000Y-25950000D03*
X59050000Y-33050000D03*
X60950000Y-33050000D03*
X60000000Y-30950000D03*
X63550000Y-31050000D03*
X65450000Y-31050000D03*
X64500000Y-28950000D03*
D13*
X39100000Y-32175000D03*
X39100000Y-33825000D03*
D21*
X45325000Y-30000000D03*
X43675000Y-30000000D03*
D13*
X59000000Y-35175000D03*
X59000000Y-36825000D03*
D21*
X65325000Y-33000000D03*
X63675000Y-33000000D03*
X17325000Y-33000000D03*
X15675000Y-33000000D03*
D14*
X39150000Y-30050000D03*
X41050000Y-30050000D03*
X40100000Y-27950000D03*
D21*
X9825000Y-21000000D03*
X8175000Y-21000000D03*
X58825000Y-21000000D03*
X57175000Y-21000000D03*
D22*
X88595000Y-43850000D03*
X89865000Y-43850000D03*
X91135000Y-43850000D03*
X92405000Y-43850000D03*
X92405000Y-38950000D03*
X91135000Y-38950000D03*
X89865000Y-38950000D03*
X88595000Y-38950000D03*
D23*
X86700000Y-38020000D03*
X86700000Y-38980000D03*
D20*
X89900000Y-47025000D03*
X89900000Y-48575000D03*
D13*
X88200000Y-46975000D03*
X88200000Y-48625000D03*
D24*
X84875000Y-43900000D03*
X86525000Y-43900000D03*
D25*
X95600000Y-35725000D03*
X95600000Y-34075000D03*
X94500000Y-40625000D03*
X94500000Y-38975000D03*
D13*
X94500000Y-43275000D03*
X94500000Y-44925000D03*
D25*
X91600000Y-48625000D03*
X91600000Y-46975000D03*
D26*
X78200000Y-52975000D03*
X78200000Y-52325000D03*
X78200000Y-51675000D03*
X78200000Y-51025000D03*
X75600000Y-51025000D03*
X75600000Y-51675000D03*
X75600000Y-52325000D03*
X75600000Y-52975000D03*
D27*
X78200000Y-55500000D03*
X80100000Y-55500000D03*
D25*
X72900000Y-52325000D03*
X72900000Y-50675000D03*
X71000000Y-52325000D03*
X71000000Y-50675000D03*
D28*
X83200000Y-50550000D03*
X83200000Y-52450000D03*
D20*
X81200000Y-50825000D03*
X81200000Y-52375000D03*
D29*
X81750000Y-42050000D03*
X79850000Y-42050000D03*
X80800000Y-44150000D03*
D30*
X77550000Y-91050000D03*
X77550000Y-92950000D03*
X79650000Y-92000000D03*
X58250000Y-91050000D03*
X58250000Y-92950000D03*
X60350000Y-92000000D03*
D31*
X88550000Y-80950000D03*
X88550000Y-79050000D03*
X86450000Y-80000000D03*
D24*
X89675000Y-35700000D03*
X91325000Y-35700000D03*
D15*
X86475000Y-42100000D03*
X84925000Y-42100000D03*
D32*
X82025000Y-19400000D03*
X84975000Y-19400000D03*
D33*
X80800000Y-27187500D03*
X80800000Y-29012500D03*
D32*
X82025000Y-15800000D03*
X84975000Y-15800000D03*
D34*
X72600000Y-56050000D03*
X72600000Y-60750000D03*
D30*
X41050000Y-91050000D03*
X41050000Y-92950000D03*
X43150000Y-92000000D03*
D17*
X27245000Y-46600000D03*
X28205000Y-46600000D03*
D35*
X37260000Y-47300000D03*
X35360000Y-47300000D03*
X36310000Y-49300000D03*
D36*
X35310000Y-44490000D03*
X35310000Y-45510000D03*
D28*
X35000000Y-60450000D03*
X35000000Y-62350000D03*
D37*
X42910000Y-47300000D03*
X41890000Y-47300000D03*
D38*
X30300000Y-57200000D03*
X24700000Y-57200000D03*
D39*
X41890000Y-46000000D03*
X42910000Y-46000000D03*
X39000000Y-49300000D03*
X40020000Y-49300000D03*
D28*
X37500000Y-60450000D03*
X37500000Y-62350000D03*
D40*
X6750000Y-94000000D03*
X7600000Y-94000000D03*
X8450000Y-94000000D03*
X9300000Y-94000000D03*
X10150000Y-94000000D03*
X11000000Y-94000000D03*
X11850000Y-94000000D03*
X12700000Y-94000000D03*
X13550000Y-94000000D03*
X14400000Y-94000000D03*
X15250000Y-94000000D03*
X16100000Y-94000000D03*
X16950000Y-94000000D03*
X17800000Y-94000000D03*
X18650000Y-94000000D03*
D41*
X19700000Y-92950000D03*
X19700000Y-92100000D03*
X19700000Y-91250000D03*
X19700000Y-90400000D03*
X19700000Y-89550000D03*
X19700000Y-88700000D03*
X19700000Y-87850000D03*
X19700000Y-87000000D03*
X19700000Y-86150000D03*
X19700000Y-85300000D03*
X19700000Y-84450000D03*
X19700000Y-83600000D03*
X19700000Y-82750000D03*
X19700000Y-81900000D03*
X19700000Y-81050000D03*
D40*
X18650000Y-80000000D03*
X17800000Y-80000000D03*
X16950000Y-80000000D03*
X16100000Y-80000000D03*
X15250000Y-80000000D03*
X14400000Y-80000000D03*
X13550000Y-80000000D03*
X12700000Y-80000000D03*
X11850000Y-80000000D03*
X11000000Y-80000000D03*
X10150000Y-80000000D03*
X9300000Y-80000000D03*
X8450000Y-80000000D03*
X7600000Y-80000000D03*
X6750000Y-80000000D03*
D41*
X5700000Y-83600000D03*
D42*
X5700000Y-94000000D03*
D43*
X11050000Y-88650000D03*
D41*
X5700000Y-81900000D03*
D42*
X19700000Y-80000000D03*
D44*
X12700000Y-88650000D03*
D41*
X5700000Y-82750000D03*
D42*
X5700000Y-80050000D03*
D44*
X11050000Y-87000000D03*
X14350000Y-87000000D03*
X11050000Y-85350000D03*
D41*
X5700000Y-87000000D03*
D44*
X12700000Y-87000000D03*
X14350000Y-88650000D03*
D41*
X5700000Y-92100000D03*
X5700000Y-87850000D03*
D44*
X12700000Y-85350000D03*
D41*
X5700000Y-81050000D03*
X5700000Y-86150000D03*
X5700000Y-92950000D03*
X5700000Y-90400000D03*
X5700000Y-91250000D03*
D44*
X14350000Y-85350000D03*
D41*
X5700000Y-89550000D03*
X5700000Y-85300000D03*
X5700000Y-84450000D03*
D42*
X19700000Y-94000000D03*
D41*
X5700000Y-88700000D03*
D15*
X9975000Y-96800000D03*
X8425000Y-96800000D03*
D45*
X6800000Y-78180000D03*
X6800000Y-77220000D03*
D46*
X32300000Y-28600000D03*
D47*
X32800000Y-49410000D03*
X32800000Y-48390000D03*
D46*
X64300000Y-72100000D03*
D45*
X10000000Y-65000000D03*
X10000000Y-64040000D03*
D48*
X47562500Y-57200000D03*
X44637500Y-57200000D03*
D49*
X30250000Y-44900000D03*
X33550000Y-44900000D03*
D50*
X40095000Y-69590000D03*
X40095000Y-70860000D03*
X40095000Y-72130000D03*
X40095000Y-73400000D03*
X40095000Y-74670000D03*
X40095000Y-75940000D03*
X40095000Y-77210000D03*
X45045000Y-77210000D03*
X45045000Y-75940000D03*
X45045000Y-74670000D03*
X45045000Y-73400000D03*
X45045000Y-72130000D03*
X45045000Y-70860000D03*
X45045000Y-69590000D03*
D20*
X63100000Y-64725000D03*
X63100000Y-66275000D03*
D21*
X29425000Y-10000000D03*
X27775000Y-10000000D03*
D37*
X5910000Y-1700000D03*
X4890000Y-1700000D03*
D23*
X34900000Y-73720000D03*
X34900000Y-74680000D03*
D36*
X21900000Y-43490000D03*
X21900000Y-44510000D03*
D46*
X84300000Y-74800000D03*
D51*
X64950000Y-78937500D03*
X66850000Y-78937500D03*
X65900000Y-77062500D03*
D46*
X77400000Y-34400000D03*
D52*
X9380000Y-98200000D03*
X8420000Y-98200000D03*
D53*
X56000000Y-65650000D03*
X56000000Y-63750000D03*
D54*
X69100000Y-52375000D03*
X69100000Y-50825000D03*
D37*
X36510000Y-86000000D03*
X35490000Y-86000000D03*
D24*
X24175000Y-10000000D03*
X25825000Y-10000000D03*
D55*
X38050000Y-86950000D03*
X33950000Y-91050000D03*
D46*
X94100000Y-63500000D03*
D56*
X15350000Y-42500000D03*
X13450000Y-42500000D03*
D46*
X94100000Y-71700000D03*
D37*
X11010000Y-28300000D03*
X9990000Y-28300000D03*
D46*
X54100000Y-36800000D03*
D10*
X76400000Y-65500000D03*
D23*
X68900000Y-65520000D03*
X68900000Y-66480000D03*
D57*
X35100000Y-89475000D03*
X36900000Y-89475000D03*
X36900000Y-88525000D03*
X35100000Y-88525000D03*
D46*
X41600000Y-51400000D03*
D29*
X72350000Y-69900000D03*
X70450000Y-69900000D03*
X71400000Y-72000000D03*
D17*
X25920000Y-91300000D03*
X26880000Y-91300000D03*
X20820000Y-18200000D03*
X21780000Y-18200000D03*
X67620000Y-18300000D03*
X68580000Y-18300000D03*
D58*
X67200000Y-47800000D03*
X67200000Y-49200000D03*
D59*
X21350000Y-36462500D03*
X19450000Y-36462500D03*
X20400000Y-38337500D03*
D46*
X94100000Y-67600000D03*
D14*
X75450000Y-74100000D03*
X77350000Y-74100000D03*
X76400000Y-72000000D03*
D59*
X73350000Y-76162500D03*
X71450000Y-76162500D03*
X72400000Y-78037500D03*
D46*
X76400000Y-47000000D03*
D30*
X24150000Y-42650000D03*
X24150000Y-44550000D03*
X26250000Y-43600000D03*
D21*
X37995000Y-76300000D03*
X36345000Y-76300000D03*
D37*
X21610000Y-59800000D03*
X20590000Y-59800000D03*
D54*
X38900000Y-47275000D03*
X38900000Y-45725000D03*
D10*
X40500000Y-57200000D03*
D37*
X64510000Y-75200000D03*
X63490000Y-75200000D03*
D30*
X24150000Y-38450000D03*
X24150000Y-40350000D03*
X26250000Y-39400000D03*
D60*
X24100000Y-88750000D03*
X24100000Y-91250000D03*
D31*
X19550000Y-53950000D03*
X19550000Y-52050000D03*
X17450000Y-53000000D03*
D36*
X39300000Y-87390000D03*
X39300000Y-88410000D03*
D17*
X25940000Y-88700000D03*
X26900000Y-88700000D03*
D21*
X53225000Y-10000000D03*
X51575000Y-10000000D03*
D36*
X5600000Y-77190000D03*
X5600000Y-78210000D03*
X19800000Y-95990000D03*
X19800000Y-97010000D03*
D10*
X10900000Y-41500000D03*
D55*
X38050000Y-80950000D03*
X33950000Y-85050000D03*
D51*
X61150000Y-78937500D03*
X63050000Y-78937500D03*
X62100000Y-77062500D03*
D24*
X36345000Y-74700000D03*
X37995000Y-74700000D03*
D54*
X40500000Y-47275000D03*
X40500000Y-45725000D03*
D17*
X72420000Y-79800000D03*
X73380000Y-79800000D03*
D36*
X21300000Y-52190000D03*
X21300000Y-53210000D03*
D47*
X17400000Y-97010000D03*
X17400000Y-95990000D03*
D59*
X17350000Y-36462500D03*
X15450000Y-36462500D03*
X16400000Y-38337500D03*
D61*
X58962500Y-63750000D03*
X58962500Y-64700000D03*
X58962500Y-65650000D03*
X61237500Y-65650000D03*
X61237500Y-63750000D03*
D37*
X66010000Y-80800000D03*
X64990000Y-80800000D03*
X35580000Y-69600000D03*
X34560000Y-69600000D03*
X9210000Y-22600000D03*
X8190000Y-22600000D03*
D10*
X51300000Y-57200000D03*
D47*
X20600000Y-44510000D03*
X20600000Y-43490000D03*
D46*
X86500000Y-55900000D03*
D25*
X86500000Y-48625000D03*
X86500000Y-46975000D03*
D37*
X7410000Y-40800000D03*
X6390000Y-40800000D03*
D17*
X28945000Y-48300000D03*
X29905000Y-48300000D03*
D23*
X33500000Y-38920000D03*
X33500000Y-39880000D03*
D56*
X15350000Y-44700000D03*
X13450000Y-44700000D03*
D23*
X33900000Y-48420000D03*
X33900000Y-49380000D03*
D31*
X21650000Y-58050000D03*
X21650000Y-56150000D03*
X19550000Y-57100000D03*
D17*
X45020000Y-18300000D03*
X45980000Y-18300000D03*
D13*
X67200000Y-50775000D03*
X67200000Y-52425000D03*
D47*
X18650000Y-97010000D03*
X18650000Y-95990000D03*
D36*
X17400000Y-56990000D03*
X17400000Y-58010000D03*
D10*
X21200000Y-48500000D03*
D52*
X25080000Y-64900000D03*
X24120000Y-64900000D03*
D39*
X17890000Y-40000000D03*
X18910000Y-40000000D03*
X35300000Y-51000000D03*
X36320000Y-51000000D03*
X15490000Y-34600000D03*
X16510000Y-34600000D03*
D59*
X72350000Y-65462500D03*
X70450000Y-65462500D03*
X71400000Y-67337500D03*
D47*
X32100000Y-39910000D03*
X32100000Y-38890000D03*
D39*
X10790000Y-77700000D03*
X11810000Y-77700000D03*
D62*
X27500000Y-50000000D03*
X27500000Y-49500000D03*
X27500000Y-49000000D03*
X27500000Y-48500000D03*
X24550000Y-48000000D03*
X24550000Y-48500000D03*
X27500000Y-48000000D03*
X24550000Y-49000000D03*
X24550000Y-49500000D03*
X24550000Y-50000000D03*
D63*
X26025000Y-49000000D03*
D47*
X47400000Y-70710000D03*
X47400000Y-69690000D03*
D36*
X16200000Y-95990000D03*
X16200000Y-97010000D03*
D46*
X94100000Y-59400000D03*
D36*
X39500000Y-82390000D03*
X39500000Y-83410000D03*
D46*
X63900000Y-56700000D03*
D57*
X35100000Y-83475000D03*
X36900000Y-83475000D03*
X36900000Y-82525000D03*
X35100000Y-82525000D03*
D31*
X30350000Y-40350000D03*
X30350000Y-38450000D03*
X28250000Y-39400000D03*
D36*
X48700000Y-69690000D03*
X48700000Y-70710000D03*
D37*
X37980000Y-69600000D03*
X36960000Y-69600000D03*
D13*
X84800000Y-46975000D03*
X84800000Y-48625000D03*
D37*
X36410000Y-80000000D03*
X35390000Y-80000000D03*
D64*
X22240000Y-75335000D03*
X22240000Y-67385000D03*
X26740000Y-75335000D03*
X26740000Y-67385000D03*
D65*
X85000000Y-12000000D03*
D66*
X87500000Y-12000000D03*
X89500000Y-12000000D03*
X92000000Y-12000000D03*
D67*
X81930000Y-9290000D03*
X95070000Y-9290000D03*
D68*
X2312500Y-53000000D03*
D69*
X12812500Y-53000000D03*
X6812500Y-53000000D03*
D70*
X9812500Y-48300000D03*
D12*
X3000000Y-33250000D03*
X3000000Y-28750000D03*
D71*
X5500000Y-34500000D03*
X5500000Y-27500000D03*
D72*
X8930000Y-74300000D03*
D73*
X8930000Y-75570000D03*
X10200000Y-74300000D03*
X10200000Y-75570000D03*
X11470000Y-74300000D03*
X11470000Y-75570000D03*
X12740000Y-74300000D03*
X12740000Y-75570000D03*
X14010000Y-74300000D03*
X14010000Y-75570000D03*
D12*
X3000000Y-22250000D03*
X3000000Y-17750000D03*
D71*
X5500000Y-23500000D03*
X5500000Y-16500000D03*
D74*
X22160000Y-6650000D03*
X10730000Y-6650000D03*
D75*
X12000000Y-13000000D03*
D76*
X13270000Y-15540000D03*
X14540000Y-13000000D03*
X15810000Y-15540000D03*
X17080000Y-13000000D03*
X18350000Y-15540000D03*
X19620000Y-13000000D03*
X20890000Y-15540000D03*
D77*
X93065000Y-17200000D03*
X90525000Y-17200000D03*
D74*
X34730000Y-6650000D03*
X46160000Y-6650000D03*
D75*
X36000000Y-13000000D03*
D76*
X37270000Y-15540000D03*
X38540000Y-13000000D03*
X39810000Y-15540000D03*
X41080000Y-13000000D03*
X42350000Y-15540000D03*
X43620000Y-13000000D03*
X44890000Y-15540000D03*
D12*
X3000000Y-11250000D03*
X3000000Y-6750000D03*
D71*
X5500000Y-12500000D03*
X5500000Y-5500000D03*
D12*
X3000000Y-44250000D03*
X3000000Y-39750000D03*
D71*
X5500000Y-45500000D03*
X5500000Y-38500000D03*
D12*
X3000000Y-66250000D03*
X3000000Y-61750000D03*
D71*
X5500000Y-67500000D03*
X5500000Y-60500000D03*
D77*
X14000000Y-69000000D03*
X14000000Y-66460000D03*
X14000000Y-63920000D03*
X14000000Y-61380000D03*
D74*
X58730000Y-6550000D03*
X70160000Y-6550000D03*
D75*
X60000000Y-12900000D03*
D76*
X61270000Y-15440000D03*
X62540000Y-12900000D03*
X63810000Y-15440000D03*
X65080000Y-12900000D03*
X66350000Y-15440000D03*
X67620000Y-12900000D03*
X68890000Y-15440000D03*
D74*
X88455000Y-32195000D03*
X30555000Y-87805000D03*
X30555000Y-32195000D03*
X49855000Y-87805000D03*
X69155000Y-87805000D03*
X88455000Y-87805000D03*
X69155000Y-32195000D03*
X49855000Y-32195000D03*
D78*
X88455000Y-96450000D03*
X88455000Y-23550000D03*
X69150000Y-96450000D03*
X69150000Y-23550000D03*
X49850000Y-96450000D03*
X49850000Y-23550000D03*
X30545000Y-96450000D03*
X30545000Y-23550000D03*
M02*
