G04 #@! TF.GenerationSoftware,KiCad,Pcbnew,(6.0.6)*
G04 #@! TF.CreationDate,2023-10-25T22:22:06+02:00*
G04 #@! TF.ProjectId,SHS_DCDC,5348535f-4443-4444-932e-6b696361645f,rev?*
G04 #@! TF.SameCoordinates,Original*
G04 #@! TF.FileFunction,Soldermask,Bot*
G04 #@! TF.FilePolarity,Negative*
%FSLAX46Y46*%
G04 Gerber Fmt 4.6, Leading zero omitted, Abs format (unit mm)*
G04 Created by KiCad (PCBNEW (6.0.6)) date 2023-10-25 22:22:06*
%MOMM*%
%LPD*%
G01*
G04 APERTURE LIST*
%ADD10C,2.700000*%
%ADD11C,0.610000*%
%ADD12R,1.524000X1.524000*%
%ADD13C,1.524000*%
%ADD14C,3.500000*%
%ADD15C,2.200000*%
%ADD16O,2.000000X4.000000*%
%ADD17O,4.000000X2.000000*%
%ADD18C,2.000000*%
%ADD19C,2.600000*%
%ADD20R,1.000000X1.000000*%
%ADD21O,1.000000X1.000000*%
%ADD22C,3.200000*%
%ADD23R,1.500000X1.500000*%
%ADD24C,1.500000*%
%ADD25C,2.020000*%
%ADD26C,3.600000*%
G04 APERTURE END LIST*
D10*
X76500000Y-17000000D03*
X52500000Y-17000000D03*
X28500000Y-17000000D03*
D11*
X38050000Y-86950000D03*
X33950000Y-91050000D03*
X38050000Y-80950000D03*
X33950000Y-85050000D03*
D12*
X85000000Y-12000000D03*
D13*
X87500000Y-12000000D03*
X89500000Y-12000000D03*
X92000000Y-12000000D03*
D14*
X81930000Y-9290000D03*
X95070000Y-9290000D03*
D15*
X2312500Y-53000000D03*
D16*
X12812500Y-53000000D03*
X6812500Y-53000000D03*
D17*
X9812500Y-48300000D03*
D18*
X3000000Y-33250000D03*
X3000000Y-28750000D03*
D19*
X5500000Y-34500000D03*
X5500000Y-27500000D03*
D20*
X8930000Y-74300000D03*
D21*
X8930000Y-75570000D03*
X10200000Y-74300000D03*
X10200000Y-75570000D03*
X11470000Y-74300000D03*
X11470000Y-75570000D03*
X12740000Y-74300000D03*
X12740000Y-75570000D03*
X14010000Y-74300000D03*
X14010000Y-75570000D03*
D18*
X3000000Y-22250000D03*
X3000000Y-17750000D03*
D19*
X5500000Y-23500000D03*
X5500000Y-16500000D03*
D22*
X22160000Y-6650000D03*
X10730000Y-6650000D03*
D23*
X12000000Y-13000000D03*
D24*
X13270000Y-15540000D03*
X14540000Y-13000000D03*
X15810000Y-15540000D03*
X17080000Y-13000000D03*
X18350000Y-15540000D03*
X19620000Y-13000000D03*
X20890000Y-15540000D03*
D25*
X93065000Y-17200000D03*
X90525000Y-17200000D03*
D22*
X34730000Y-6650000D03*
X46160000Y-6650000D03*
D23*
X36000000Y-13000000D03*
D24*
X37270000Y-15540000D03*
X38540000Y-13000000D03*
X39810000Y-15540000D03*
X41080000Y-13000000D03*
X42350000Y-15540000D03*
X43620000Y-13000000D03*
X44890000Y-15540000D03*
D18*
X3000000Y-11250000D03*
X3000000Y-6750000D03*
D19*
X5500000Y-12500000D03*
X5500000Y-5500000D03*
D18*
X3000000Y-44250000D03*
X3000000Y-39750000D03*
D19*
X5500000Y-45500000D03*
X5500000Y-38500000D03*
D18*
X3000000Y-66250000D03*
X3000000Y-61750000D03*
D19*
X5500000Y-67500000D03*
X5500000Y-60500000D03*
D25*
X14000000Y-69000000D03*
X14000000Y-66460000D03*
X14000000Y-63920000D03*
X14000000Y-61380000D03*
D22*
X58730000Y-6550000D03*
X70160000Y-6550000D03*
D23*
X60000000Y-12900000D03*
D24*
X61270000Y-15440000D03*
X62540000Y-12900000D03*
X63810000Y-15440000D03*
X65080000Y-12900000D03*
X66350000Y-15440000D03*
X67620000Y-12900000D03*
X68890000Y-15440000D03*
D22*
X88455000Y-32195000D03*
X30555000Y-87805000D03*
X30555000Y-32195000D03*
X49855000Y-87805000D03*
X69155000Y-87805000D03*
X88455000Y-87805000D03*
X69155000Y-32195000D03*
X49855000Y-32195000D03*
D26*
X88455000Y-96450000D03*
X88455000Y-23550000D03*
X69150000Y-96450000D03*
X69150000Y-23550000D03*
X49850000Y-96450000D03*
X49850000Y-23550000D03*
X30545000Y-96450000D03*
X30545000Y-23550000D03*
M02*
